<svg width="20" height="27" viewBox="0 0 20 27" fill="none" xmlns="http://www.w3.org/2000/svg">
<path d="M18.3077 1H1V26H18.3077V1Z" stroke="white" stroke-width="2" stroke-miterlimit="10"/>
<path d="M14.3654 10.6154L4.84619 10.7116V4.94235L14.3654 4.84619V10.6154Z" stroke="white" stroke-width="2" stroke-miterlimit="10"/>
<path d="M5.80784 13.5H3.88477V15.4231H5.80784V13.5Z" fill="white"/>
<path d="M10.6155 13.5H8.69238V15.4231H10.6155V13.5Z" fill="white"/>
<path d="M15.4231 13.5H13.5V15.4231H15.4231V13.5Z" fill="white"/>
<path d="M5.80784 17.3462H3.88477V19.2693H5.80784V17.3462Z" fill="white"/>
<path d="M10.6155 17.3462H8.69238V19.2693H10.6155V17.3462Z" fill="white"/>
<path d="M15.4231 17.3462H13.5V19.2693H15.4231V17.3462Z" fill="white"/>
<path d="M5.80784 21.1923H3.88477V23.1153H5.80784V21.1923Z" fill="white"/>
<path d="M10.6155 21.1923H8.69238V23.1153H10.6155V21.1923Z" fill="white"/>
<path d="M15.4231 21.1923H13.5V23.1153H15.4231V21.1923Z" fill="white"/>
</svg>
