<svg width="25" height="22" viewBox="0 0 25 22" fill="none" xmlns="http://www.w3.org/2000/svg">
<path d="M19.204 3.40983C18.8776 3.06436 18.429 2.86043 17.9541 2.84169H17.0451V1.70542C17.053 1.47946 17.0144 1.25428 16.9315 1.0439C16.8487 0.833523 16.7234 0.642448 16.5635 0.482569C16.4037 0.32269 16.2126 0.197429 16.0022 0.114583C15.7918 0.0317375 15.5666 -0.00692073 15.3407 0.00101524H1.70542C1.47946 -0.00692073 1.25428 0.0317375 1.0439 0.114583C0.833523 0.197429 0.642448 0.32269 0.482569 0.482569C0.32269 0.642448 0.197429 0.833523 0.114583 1.0439C0.0317373 1.25428 -0.00692073 1.47946 0.00101524 1.70542V17.0451C-0.00692073 17.271 0.0317373 17.4962 0.114583 17.7066C0.197429 17.917 0.32269 18.1081 0.482569 18.2679C0.642448 18.4278 0.833523 18.5531 1.0439 18.6359C1.25428 18.7188 1.47946 18.7574 1.70542 18.7495H3.01213C3.25937 19.5666 3.76296 20.2824 4.44846 20.7912C5.13396 21.3 5.96497 21.5747 6.81864 21.5747C7.67231 21.5747 8.50333 21.3 9.18882 20.7912C9.87432 20.2824 10.3779 19.5666 10.6252 18.7495H14.3748C14.6221 19.5666 15.1257 20.2824 15.8112 20.7912C16.4967 21.3 17.3277 21.5747 18.1814 21.5747C19.035 21.5747 19.866 21.3 20.5515 20.7912C21.237 20.2824 21.7406 19.5666 21.9879 18.7495H23.2946C23.5205 18.7574 23.7457 18.7188 23.9561 18.6359C24.1665 18.5531 24.3576 18.4278 24.5174 18.2679C24.6773 18.1081 24.8026 17.917 24.8854 17.7066C24.9683 17.4962 25.0069 17.271 24.999 17.0451V9.77295L19.204 3.40983ZM17.67 5.11424L21.8174 9.65932H17.0451V5.11424H17.67ZM6.81864 19.3176C6.48154 19.3176 6.15201 19.2177 5.87173 19.0304C5.59144 18.8431 5.37298 18.5769 5.24398 18.2655C5.11497 17.954 5.08122 17.6113 5.14699 17.2807C5.21275 16.9501 5.37508 16.6464 5.61345 16.408C5.85181 16.1697 6.15551 16.0073 6.48613 15.9416C6.81675 15.8758 7.15945 15.9096 7.47089 16.0386C7.78233 16.1676 8.04852 16.386 8.23581 16.6663C8.42309 16.9466 8.52305 17.2761 8.52305 17.6132C8.53099 17.8392 8.49233 18.0644 8.40948 18.2747C8.32664 18.4851 8.20138 18.6762 8.0415 18.8361C7.88162 18.996 7.69054 19.1212 7.48016 19.2041C7.26979 19.2869 7.04461 19.3256 6.81864 19.3176ZM18.1814 19.3176C17.8443 19.3176 17.5147 19.2177 17.2344 19.0304C16.9542 18.8431 16.7357 18.5769 16.6067 18.2655C16.4777 17.954 16.4439 17.6113 16.5097 17.2807C16.5755 16.9501 16.7378 16.6464 16.9762 16.408C17.2145 16.1697 17.5182 16.0073 17.8488 15.9416C18.1795 15.8758 18.5222 15.9096 18.8336 16.0386C19.145 16.1676 19.4112 16.386 19.5985 16.6663C19.7858 16.9466 19.8858 17.2761 19.8858 17.6132C19.8937 17.8392 19.855 18.0644 19.7722 18.2747C19.6893 18.4851 19.5641 18.6762 19.4042 18.8361C19.2443 18.996 19.0533 19.1212 18.8429 19.2041C18.6325 19.2869 18.4073 19.3256 18.1814 19.3176Z" fill="#0054FF"/>
</svg>
