<svg width="25" height="28" viewBox="0 0 25 28" fill="none" xmlns="http://www.w3.org/2000/svg">
<path fill-rule="evenodd" clip-rule="evenodd" d="M1.62718 1.62718C-1.65568e-07 3.25437 0 5.87328 0 11.1111V16.6667C0 21.9044 -1.65568e-07 24.5235 1.62718 26.1506C3.25437 27.7778 5.87328 27.7778 11.1111 27.7778H13.8889C19.1267 27.7778 21.7457 27.7778 23.3728 26.1506C25 24.5235 25 21.9044 25 16.6667V11.1111C25 5.87328 25 3.25437 23.3728 1.62718C21.7457 1.65568e-07 19.1267 0 13.8889 0H11.1111C5.87328 0 3.25437 1.65568e-07 1.62718 1.62718ZM5.90278 8.33333C5.90278 7.75804 6.36915 7.29167 6.94444 7.29167H18.0556C18.6308 7.29167 19.0972 7.75804 19.0972 8.33333C19.0972 8.90862 18.6308 9.375 18.0556 9.375H6.94444C6.36915 9.375 5.90278 8.90862 5.90278 8.33333ZM5.90278 13.8889C5.90278 13.3136 6.36915 12.8472 6.94444 12.8472H18.0556C18.6308 12.8472 19.0972 13.3136 19.0972 13.8889C19.0972 14.4642 18.6308 14.9306 18.0556 14.9306H6.94444C6.36915 14.9306 5.90278 14.4642 5.90278 13.8889ZM6.94444 18.4028C6.36915 18.4028 5.90278 18.8692 5.90278 19.4444C5.90278 20.0197 6.36915 20.4861 6.94444 20.4861H13.8889C14.4642 20.4861 14.9306 20.0197 14.9306 19.4444C14.9306 18.8692 14.4642 18.4028 13.8889 18.4028H6.94444Z" fill="#0054FF"/>
</svg>
