<svg width="27" height="25" viewBox="0 0 27 25" fill="none" xmlns="http://www.w3.org/2000/svg">
<path d="M25 3.33333H20.69L17.845 0.488333C17.5325 0.175833 17.1092 0 16.6667 0H10C9.5575 0 9.13417 0.175833 8.82167 0.488333L5.97667 3.33333H1.66667C0.745417 3.33333 0 4.07875 0 5V23.3333C0 24.2546 0.745417 25 1.66667 25H25C25.9212 25 26.6667 24.2546 26.6667 23.3333V5C26.6667 4.07875 25.9212 3.33333 25 3.33333ZM13.3333 20C9.65167 20 6.66667 17.015 6.66667 13.3333C6.66667 9.65167 9.65167 6.66667 13.3333 6.66667C17.015 6.66667 20 9.65167 20 13.3333C20 17.015 17.015 20 13.3333 20Z" fill="white"/>
<path d="M13.3333 16.6667C15.1743 16.6667 16.6667 15.1743 16.6667 13.3333C16.6667 11.4924 15.1743 10 13.3333 10C11.4924 10 10 11.4924 10 13.3333C10 15.1743 11.4924 16.6667 13.3333 16.6667Z" fill="white"/>
</svg>
