<svg width="39" height="39" viewBox="0 0 39 39" fill="none" xmlns="http://www.w3.org/2000/svg">
<path d="M25.3332 19.5001C25.3332 22.7218 22.7216 25.3334 19.4998 25.3334C16.2781 25.3334 13.6665 22.7218 13.6665 19.5001C13.6665 16.2783 16.2781 13.6667 19.4998 13.6667C22.7216 13.6667 25.3332 16.2783 25.3332 19.5001Z" stroke="#8B8B8B" stroke-width="3" stroke-linecap="round" stroke-linejoin="round"/>
<path d="M21.2589 2.11676C20.8588 2 20.4059 2 19.5 2C18.5941 2 18.1412 2 17.7411 2.11676C17.1554 2.28766 16.638 2.63793 16.2617 3.11827C16.0047 3.44643 15.8365 3.86698 15.5001 4.70807C15.0165 5.91712 13.6743 6.53971 12.4389 6.12806L11.329 5.75824C10.5417 5.49582 10.1481 5.36459 9.76214 5.34211C9.1952 5.30908 8.63094 5.44229 8.13863 5.72536C7.80349 5.91808 7.51009 6.21149 6.92327 6.79831C6.29959 7.42199 5.98774 7.73382 5.78964 8.08979C5.49858 8.61274 5.37546 9.21261 5.43698 9.80794C5.47884 10.2131 5.64263 10.6226 5.97021 11.4416C6.48321 12.7241 5.98969 14.1893 4.80529 14.9001L4.26569 15.2239C3.43949 15.7196 3.02639 15.9675 2.72633 16.3088C2.46079 16.6107 2.26057 16.9644 2.13823 17.3475C2 17.7803 2 18.2668 2 19.24C2 20.3923 2 20.9682 2.18398 21.4616C2.34656 21.8973 2.61098 22.2877 2.95519 22.6006C3.34474 22.9545 3.87435 23.1664 4.93351 23.5901C6.01594 24.023 6.57326 25.2246 6.20459 26.3306L5.78624 27.5858C5.49648 28.4549 5.35158 28.8897 5.33842 29.3167C5.32257 29.8302 5.44262 30.3387 5.68641 30.7908C5.88918 31.1671 6.21318 31.491 6.86111 32.1389C7.50906 32.7868 7.83304 33.1107 8.2091 33.3135C8.66128 33.5574 9.16981 33.6775 9.68328 33.6616C10.1103 33.6484 10.545 33.5035 11.4143 33.2138L12.439 32.8721C13.6743 32.4605 15.0165 33.0829 15.5001 34.292C15.8365 35.1329 16.0047 35.5535 16.2617 35.8817C16.638 36.362 17.1554 36.7124 17.7411 36.8833C18.1412 37 18.5941 37 19.5 37C20.4059 37 20.8588 37 21.2589 36.8833C21.8446 36.7124 22.362 36.362 22.7383 35.8817C22.9953 35.5535 23.1635 35.1329 23.4999 34.292C23.9835 33.0829 25.3257 32.4605 26.5609 32.8725L27.5848 33.214C28.4542 33.5037 28.8889 33.6486 29.3159 33.6618C29.8295 33.6775 30.3379 33.5576 30.79 33.3137C31.1661 33.1109 31.4902 32.787 32.1381 32.1391C32.786 31.4912 33.1099 31.1671 33.3128 30.791C33.5566 30.3389 33.6766 29.8303 33.6608 29.3169C33.6476 28.8899 33.5027 28.4551 33.213 27.5858L32.7949 26.3316C32.4261 25.2252 32.9836 24.0232 34.0664 23.5901C35.1256 23.1664 35.6552 22.9545 36.0449 22.6006C36.3891 22.2877 36.6535 21.8973 36.8161 21.4616C37 20.9682 37 20.3923 37 19.24C37 18.2668 37 17.7803 36.8617 17.3475C36.7394 16.9644 36.5392 16.6107 36.2737 16.3088C35.9735 15.9675 35.5605 15.7196 34.7343 15.2239L34.194 14.8998C33.0096 14.1891 32.5159 12.7239 33.0291 11.4414C33.3565 10.6225 33.5204 10.213 33.5622 9.80778C33.6237 9.21245 33.5006 8.61261 33.2095 8.08963C33.0114 7.73368 32.6997 7.42183 32.0759 6.79815C31.4891 6.21136 31.1956 5.91794 30.8606 5.72523C30.3683 5.44213 29.804 5.30894 29.237 5.34196C28.851 5.36445 28.4575 5.49566 27.6702 5.75809L26.5611 6.1278C25.3257 6.53958 23.9835 5.91708 23.4999 4.70807C23.1635 3.86698 22.9953 3.44643 22.7383 3.11827C22.362 2.63793 21.8446 2.28766 21.2589 2.11676Z" stroke="#8B8B8B" stroke-width="3" stroke-linecap="round" stroke-linejoin="round"/>
</svg>
