<svg width="27" height="27" viewBox="0 0 27 27" fill="none" xmlns="http://www.w3.org/2000/svg">
<path d="M15.5395 6.26316C16.8247 6.51391 18.0058 7.14245 18.9317 8.06834C19.8576 8.99422 20.4862 10.1753 20.7368 11.4605M15.5395 1C18.2096 1.29663 20.6995 2.49233 22.6004 4.3908C24.5012 6.28926 25.7001 8.77764 26 11.4474M21.3947 26C10.131 26 1 16.8689 1 5.60526C1 5.09708 1.01859 4.59324 1.05512 4.09438C1.09704 3.52187 1.118 3.23562 1.26803 2.97504C1.39229 2.75922 1.6125 2.55455 1.83682 2.44638C2.10764 2.31579 2.42353 2.31579 3.05528 2.31579H6.76226C7.29353 2.31579 7.55916 2.31579 7.78687 2.40322C7.98801 2.48046 8.16712 2.60591 8.30845 2.76855C8.46843 2.95267 8.55921 3.20232 8.74078 3.70159L10.2751 7.92112C10.4863 8.50201 10.592 8.79246 10.5741 9.06803C10.5583 9.31101 10.4753 9.54484 10.3345 9.7435C10.1748 9.96879 9.9098 10.1278 9.37978 10.4458L7.57895 11.5263C9.16039 15.0117 11.987 17.842 15.4737 19.4211L16.5542 17.6203C16.8722 17.0901 17.0312 16.8251 17.2564 16.6655C17.4551 16.5247 17.6889 16.4417 17.932 16.4259C18.2075 16.408 18.498 16.5137 19.0789 16.7249L23.2984 18.2592C23.7976 18.4408 24.0474 18.5316 24.2314 18.6916C24.3941 18.8329 24.5196 19.012 24.5967 19.2132C24.6842 19.4408 24.6842 19.7064 24.6842 20.2378V23.9447C24.6842 24.5764 24.6842 24.8924 24.5536 25.1632C24.4454 25.3875 24.2408 25.6078 24.025 25.732C23.7643 25.882 23.4782 25.9029 22.9057 25.9449C22.4067 25.9814 21.9029 26 21.3947 26Z" stroke="white" stroke-width="2" stroke-linecap="round" stroke-linejoin="round"/>
</svg>
