<svg width="374" height="374" viewBox="0 0 374 374" fill="none" xmlns="http://www.w3.org/2000/svg">
<path d="M187 0.625C236.43 0.625 283.835 20.2609 318.787 55.213C353.739 90.1651 373.375 137.57 373.375 187C373.375 236.43 353.739 283.835 318.787 318.787C283.835 353.739 236.43 373.375 187 373.375C137.57 373.375 90.1651 353.739 55.213 318.787C20.2609 283.835 0.625 236.43 0.625 187C0.625 137.57 20.2609 90.1651 55.213 55.213C90.1651 20.2609 137.57 0.625 187 0.625ZM163.783 223.769L122.381 182.341C120.897 180.856 119.135 179.679 117.196 178.876C115.256 178.072 113.178 177.659 111.079 177.659C108.98 177.659 106.901 178.072 104.962 178.876C103.023 179.679 101.261 180.856 99.7765 182.341C96.7789 185.338 95.0949 189.404 95.0949 193.643C95.0949 197.882 96.7789 201.948 99.7765 204.945L152.494 257.663C153.974 259.154 155.735 260.338 157.675 261.146C159.614 261.954 161.695 262.37 163.796 262.37C165.898 262.37 167.978 261.954 169.918 261.146C171.858 260.338 173.619 259.154 175.099 257.663L284.261 148.474C285.765 146.996 286.962 145.234 287.782 143.291C288.602 141.349 289.029 139.263 289.039 137.154C289.049 135.045 288.641 132.955 287.839 131.005C287.037 129.055 285.857 127.282 284.367 125.79C282.876 124.298 281.105 123.116 279.156 122.312C277.207 121.508 275.117 121.097 273.008 121.105C270.9 121.112 268.813 121.537 266.869 122.355C264.926 123.172 263.163 124.367 261.683 125.869L163.783 223.769Z" fill="#0054FF"/>
</svg>
