<svg width="35" height="35" viewBox="0 0 35 35" fill="none" xmlns="http://www.w3.org/2000/svg">
<path fill-rule="evenodd" clip-rule="evenodd" d="M2.17902 5.30252C2.75468 5.19382 3.34685 5.37663 3.7611 5.79086L8.14103 10.1708C8.70306 10.7328 9.61429 10.7328 10.1763 10.1708C10.7384 9.60877 10.7384 8.69753 10.1763 8.13549L5.79856 3.75773C5.38411 3.34328 5.20136 2.75072 5.31038 2.17481C5.41942 1.59892 5.80609 1.11416 6.34337 0.879867C10.2092 -0.805901 14.8819 -0.0705109 18.049 3.09646C20.5547 5.60225 21.5379 9.05209 21.0049 12.2957L33.1961 24.4869C35.6012 26.8918 35.6012 30.7912 33.1961 33.1963C30.791 35.6012 26.8918 35.6012 24.4867 33.1963L12.2954 21.0049C9.05192 21.5379 5.6022 20.5546 3.09646 18.049C-0.0730235 14.8794 -0.807085 10.2017 0.883912 6.33411C1.11859 5.79733 1.60335 5.41121 2.17902 5.30252ZM3.54416 10.5869C3.54796 12.3819 4.23517 14.1746 5.60296 15.5423C7.44415 17.3836 10.0538 17.9919 12.4069 17.3588C13.019 17.1941 13.6725 17.3689 14.1207 17.8171L26.9932 30.6898C28.0139 31.7105 29.6689 31.7105 30.6897 30.6898C31.7104 29.6691 31.7104 28.0141 30.6897 26.9934L17.8171 14.1209C17.3689 13.6726 17.1941 13.0192 17.3588 12.4071C17.9921 10.0539 17.3836 7.4442 15.5423 5.60296C14.1774 4.23799 12.3892 3.55079 10.598 3.54418L12.6828 5.62899C14.6292 7.57532 14.6292 10.731 12.6828 12.6773C10.7365 14.6237 7.58085 14.6237 5.63453 12.6773L3.54416 10.5869Z" fill="#8B8B8B"/>
</svg>
