<svg width="80" height="80" viewBox="0 0 80 80" fill="none" xmlns="http://www.w3.org/2000/svg">
<path fill-rule="evenodd" clip-rule="evenodd" d="M48.7747 25.3869C49.2708 25.1292 49.749 24.8369 50.3337 24.4987C48.5433 23.2447 46.743 22.3278 44.7589 21.7979C44.5825 21.7508 44.356 21.891 44.2128 21.9285C45.6358 23.0928 47.003 24.2166 48.3807 25.3273C48.4729 25.4014 48.677 25.4376 48.7747 25.3869ZM30.2435 25.3013C31.2357 24.4727 32.2452 23.6642 33.2624 22.8662C33.6028 22.5993 33.9848 22.3854 34.3718 22.1315C34.1393 21.696 33.826 21.733 33.501 21.8452C31.7668 22.444 30.1016 23.1874 28.5762 24.2188C28.4496 24.3045 28.3377 24.4117 28.1601 24.5571C28.6869 24.858 29.1506 25.1143 29.6052 25.3857C29.8509 25.5324 30.0192 25.4885 30.2435 25.3013ZM43.2854 21.3925C40.5733 20.82 37.9012 20.8139 35.1746 21.4054C36.9698 23.1069 41.6076 23.0256 43.2854 21.3925ZM30.8887 25.8561L30.9067 26.0252C31.8185 26.3277 32.7276 26.6391 33.6464 26.9181C33.7344 26.9449 33.9242 26.7966 33.9981 26.6844C34.7451 25.5507 35.4784 24.4079 36.2126 23.2657C36.2447 23.2158 36.2482 23.1472 36.2675 23.0788C35.7332 22.7034 35.23 22.5281 34.6377 22.9803C34.0218 23.4506 33.3384 23.8324 32.7229 24.3032C32.0875 24.7893 31.4982 25.3359 30.8887 25.8561ZM42.2105 23.0543C42.9886 24.2868 43.753 25.5042 44.5297 26.7136C44.5866 26.8021 44.7544 26.9036 44.8346 26.8794C45.7679 26.599 46.6944 26.2954 47.7264 25.9647C47.5049 25.7188 47.4156 25.5816 47.2925 25.4889C46.1572 24.6339 45.0132 23.7903 43.8779 22.9355C43.2733 22.4803 42.7383 22.696 42.2105 23.0543ZM40.6934 23.4275C39.7892 23.557 39.761 23.5373 39.7371 24.4339C39.7088 25.4921 39.7305 26.5516 39.7305 27.7409C41.1118 27.5733 42.3815 27.4192 43.6513 27.2652L43.7689 27.053C43.039 25.9756 42.3007 24.9037 41.5839 23.8177C41.3592 23.4772 41.0988 23.3695 40.6934 23.4275ZM37.7728 23.4366C37.5551 23.412 37.211 23.4225 37.1174 23.5539C36.3387 24.6466 35.6003 25.7683 34.8707 26.895C34.8284 26.9604 34.9564 27.2492 35.0283 27.2587C36.1654 27.4094 37.3063 27.5317 38.4465 27.6595C38.7589 27.6946 38.8318 27.5191 38.8272 27.247C38.8179 26.6967 38.8244 26.1461 38.8244 25.5956C38.8318 25.5956 38.8392 25.5956 38.8465 25.5956C38.8465 25.2555 38.8672 24.9139 38.8428 24.5756C38.7585 23.4043 39.0854 23.5849 37.7728 23.4366ZM34.3932 57.6762C32.9111 56.7473 31.5054 55.7216 30.283 54.4598C30.214 54.3885 30.0558 54.311 29.9912 54.3427C29.4277 54.6193 28.8761 54.9203 28.3262 55.2112C28.4061 55.3604 28.414 55.3985 28.4372 55.415C30.1108 56.6054 31.9359 57.4832 33.9171 58.0225C34.0773 58.0661 34.29 57.9171 34.4992 57.8511C34.4266 57.7291 34.4171 57.6912 34.3932 57.6762ZM48.3606 54.5193C47.2408 55.4469 46.102 56.3518 44.9659 57.2597C44.7557 57.4276 44.5263 57.5713 44.3058 57.7262C44.3102 57.7875 44.3145 57.849 44.3189 57.9104C44.5534 57.9372 44.8084 58.0379 45.0191 57.9792C46.8592 57.4666 48.5503 56.627 50.1344 55.5668C50.2504 55.4892 50.3494 55.3865 50.5259 55.236C50.0073 54.9451 49.5411 54.6988 49.0912 54.4256C48.8066 54.2528 48.6107 54.3121 48.3606 54.5193ZM35.3835 58.3404C36.9476 58.9943 41.9887 58.9933 43.4252 58.3303C41.6982 56.7478 36.9674 56.7538 35.3835 58.3404ZM47.806 53.9399C47.7917 53.8749 47.7773 53.81 47.7629 53.7452C46.8779 53.4615 45.9958 53.1686 45.1044 52.9065C44.9948 52.8743 44.7756 52.9678 44.7103 53.0694C43.9338 54.2764 43.177 55.496 42.3877 56.7557C42.9289 57.1088 43.4401 57.2785 44.0272 56.8269C44.5119 56.454 45.0765 56.1848 45.5593 55.81C46.3285 55.2127 47.0591 54.5658 47.806 53.9399ZM36.3858 56.7198C35.6121 55.4724 34.8424 54.224 34.0583 52.9845C34.0095 52.9072 33.8297 52.8428 33.7423 52.8707C32.8237 53.164 31.9116 53.4772 30.9977 53.7849L30.8887 54.065C31.0654 54.1776 31.2501 54.2796 31.4178 54.4045C32.5055 55.2146 33.5729 56.0532 34.6809 56.8344C35.3679 57.3189 35.6557 57.2613 36.3858 56.7198ZM37.2603 56.2559C37.4051 56.4722 38.7584 56.3913 38.8892 56.1732C38.9418 56.0857 38.9343 55.9557 38.9354 55.8448C38.9399 55.3915 38.9373 54.9383 38.9373 54.4849V52.0339C37.5532 52.1973 36.2513 52.3509 34.9414 52.5055C34.9624 52.6778 34.953 52.7342 34.9759 52.7696C35.7336 53.9342 36.4879 55.1012 37.2603 56.2559ZM41.1255 56.424C41.2564 56.4489 41.4778 56.384 41.5476 56.2842C42.3691 55.1094 43.1695 53.9201 43.9755 52.7346C43.9374 52.651 43.8992 52.5674 43.861 52.4838C42.6126 52.361 41.3648 52.2304 40.1144 52.1338C40.0349 52.1277 39.8606 52.3836 39.8567 52.5212C39.8328 53.3783 39.8392 54.2365 39.8461 55.0943C39.8585 56.6538 39.6524 56.1448 41.1255 56.424ZM57.0502 36.8674C56.967 36.2579 56.5291 35.8792 55.9735 35.6503C55.1303 35.3031 54.2746 35.326 53.4046 35.5548C52.565 35.7757 52.0248 36.2934 51.9096 37.147C51.7804 38.1057 51.7366 39.0759 51.6663 39.9147C51.7232 40.7745 51.7392 41.5037 51.826 42.2244C52.0136 43.7823 52.5815 44.3566 54.0729 44.5518C54.312 44.5831 54.5584 44.5827 54.7998 44.5684C56.4089 44.4731 57.0927 43.8479 57.2545 42.2655C57.3317 41.5108 57.3858 40.7455 57.3513 39.9896C57.3037 38.9461 57.1913 37.9029 57.0502 36.8674ZM52.3862 68.4874C51.9334 68.6453 51.4962 68.8477 51.0168 69.0497C51.8165 70.6878 52.5905 72.2821 53.3806 73.8683C53.4235 73.9545 53.6267 74.0441 53.711 74.0127C54.1739 73.841 54.6231 73.632 55.1206 73.417C54.3172 71.7844 53.5457 70.2064 52.7554 68.6378C52.7084 68.5444 52.484 68.4533 52.3862 68.4874ZM42.289 72.2113C42.1993 70.9197 42.1902 70.9203 40.8838 71.0781C40.8677 71.0801 40.8517 71.0838 40.8356 71.0843C40.5571 71.0918 40.4416 71.213 40.4607 71.5108C40.5352 72.6711 40.5852 73.8331 40.6527 74.9939C40.6842 75.5361 40.7347 76.077 40.7807 76.671C41.3767 76.6373 41.9319 76.6058 42.5249 76.5722C42.5249 76.3639 42.5321 76.2217 42.5238 76.0806C42.4479 74.7907 42.3785 73.5003 42.289 72.2113ZM47.5695 9.82729C47.9791 9.93626 48.313 10.004 48.6312 10.1159C48.946 10.2266 49.0677 10.1103 49.1426 9.81514C49.4093 8.76474 49.6915 7.71832 49.9684 6.67055C50.1443 6.0045 50.3212 5.33874 50.5073 4.63682C50.258 4.57169 50.0587 4.48595 49.8553 4.47497C49.6036 4.46136 49.2751 4.41674 49.1084 4.54836C48.5787 4.96644 48.0088 5.21451 47.3406 5.27196C47.2151 5.28275 47.0243 5.35779 46.9898 5.45023C46.8756 5.75623 46.8191 6.08381 46.7147 6.50773C47.3719 6.38583 47.9147 6.28522 48.5129 6.17431C48.1923 7.41543 47.8867 8.599 47.5695 9.82729ZM32.8018 71.7438C33.2896 71.8055 33.718 71.8793 34.1495 71.9088C34.5491 71.9361 34.7156 72.0482 34.6299 72.505C34.4303 73.5677 34.2862 74.6409 34.1318 75.7116C34.1019 75.9189 34.0036 76.1951 34.3543 76.2471C34.8278 76.3173 35.3039 76.3698 35.8081 76.4337C36.0128 75.1438 36.228 73.9051 36.3955 72.6599C36.444 72.2993 36.5895 72.2346 36.8974 72.279C37.358 72.3454 37.821 72.3954 38.342 72.4596C38.4166 72.0356 38.4873 71.6336 38.5667 71.182C36.677 70.9386 34.846 70.7027 32.9863 70.4631C32.9201 70.9222 32.8637 71.3136 32.8018 71.7438ZM49.1287 72.0718C48.5406 72.1998 47.9281 72.3408 47.3115 72.4607C47.1894 72.4844 46.9955 72.4753 46.9303 72.3992C46.5378 71.9418 46.6893 71.4919 47.2587 71.3595C47.353 71.3377 47.4491 71.3238 47.5434 71.302C48.1318 71.1657 48.7198 71.0284 49.3388 70.8841C49.234 70.4921 49.1487 70.1732 49.0529 69.8149C47.6963 70.1177 46.4061 70.4048 45.1165 70.6948C44.9781 70.726 44.8438 70.7751 44.7227 70.8113C44.7068 70.8719 44.6859 70.9059 44.6927 70.9327C45.1224 72.6056 45.5496 74.2792 45.9987 75.9469C46.0233 76.0381 46.2419 76.15 46.3513 76.1326C46.81 76.0601 47.2614 75.9419 47.7854 75.8249C47.6296 75.2307 47.4901 74.7036 47.3532 74.1758C47.1965 73.5714 47.1976 73.5719 47.7871 73.4428C48.0871 73.3771 48.3867 73.31 48.6859 73.2407C49.5668 73.0367 49.5689 73.0323 49.2317 72.164C49.2216 72.1381 49.1862 72.122 49.1287 72.0718ZM30.7398 5.2077C31.2599 5.20459 31.6821 5.71686 31.6859 6.35589C31.6888 6.8391 31.3375 7.21791 30.8881 7.21587C30.3804 7.21363 29.9842 6.69494 29.9853 6.03356C29.986 5.53528 30.2828 5.21042 30.7398 5.2077ZM29.9214 8.16255C30.6506 8.37222 31.2952 8.18355 31.7926 7.57844C31.8455 7.51409 31.9311 7.47657 32.1164 7.34486C32.1164 7.83468 32.1817 8.22836 32.1019 8.59006C31.9637 9.21674 31.4706 9.33679 30.9833 8.92931C30.8953 8.85582 30.724 8.80381 30.6232 8.83764C30.2596 8.95934 29.9098 9.12206 29.5547 9.26933C29.536 9.32445 29.5172 9.37947 29.4986 9.43458C29.7636 9.62919 30.0038 9.88231 30.2983 10.007C31.0997 10.3464 31.8597 10.0857 32.5676 9.70044C33.2272 9.34155 33.614 8.73966 33.5732 7.99341C33.536 7.31006 33.4273 6.60727 33.2078 5.96134C32.5359 3.98437 30.8945 3.89038 29.4157 4.72469C28.7492 5.10068 28.5027 5.77315 28.6056 6.51891C28.7143 7.3086 29.1177 7.9314 29.9214 8.16255ZM42.2617 4.78991C42.3395 4.41869 42.5639 4.12484 42.9952 4.15477C43.4171 4.18394 43.6583 4.48712 43.644 4.86884C43.6119 5.7296 43.5412 6.5922 43.4206 7.44479C43.3725 7.78481 43.1133 8.05699 42.6946 8.01694C42.2552 7.97494 42.1084 7.65242 42.0562 7.28216C42.0227 7.04508 42.0498 6.79944 42.0498 6.55759C42.0247 6.55429 42.1399 5.37033 42.2617 4.78991ZM40.5565 7.03769C40.6578 8.19337 41.3439 8.90209 42.4513 9.00659C43.9011 9.14345 44.6076 8.71371 44.9502 7.45315C45.1992 6.53689 45.2674 5.60459 45.0596 4.66899C44.9023 3.96095 44.4672 3.46841 43.7644 3.30637C43.317 3.20333 42.835 3.18855 42.3743 3.21976C41.7365 3.26292 41.1968 3.58029 40.9838 4.19531C40.7387 4.90287 40.5111 6.39808 40.5538 6.40751C40.5538 6.61757 40.5382 6.82909 40.5565 7.03769ZM36.2148 4.79594C36.2629 4.56595 36.5948 4.25383 36.8125 4.24012C37.0368 4.22593 37.4209 4.48566 37.4901 4.7035C37.6929 5.34126 37.7738 6.01772 37.8797 6.56284C37.8129 6.99988 37.8304 7.33222 37.7011 7.59118C37.5972 7.79891 37.3267 8.02063 37.109 8.04464C36.9206 8.06544 36.5959 7.86364 36.5154 7.67973C36.1121 6.7591 36.0093 5.77665 36.2148 4.79594ZM36.701 9.08522C38.2723 9.20498 39.1614 8.52124 39.3021 7.02904C39.3883 6.11686 39.2587 5.2184 38.9096 4.3662C38.6351 3.69597 38.1109 3.2807 37.3964 3.23531C35.7714 3.13208 34.5818 3.70423 34.5864 5.75895C34.7214 6.43735 34.805 7.1314 35.0047 7.79025C35.2488 8.5955 35.8527 9.02058 36.701 9.08522ZM18.7179 62.7374C18.3637 62.0236 17.837 61.4545 17.144 61.0665C15.722 60.2704 13.6792 60.9952 12.8486 62.5957C12.6893 62.9027 12.5755 63.2613 12.5495 63.6044C12.459 64.7923 13.6275 66.2431 14.8658 66.5566C15.5103 66.7198 16.1002 66.6107 16.7094 66.2833C16.4911 65.8349 16.2888 65.4195 16.0838 64.9985C15.8021 65.0566 15.5546 65.1305 15.3022 65.1549C14.8206 65.2015 14.3815 64.9341 14.1612 64.4913C13.9537 64.0741 14.0339 63.6829 14.3542 63.38C14.7269 63.0277 15.1208 62.6843 15.5528 62.4119C15.9912 62.1355 16.4872 62.1418 16.9183 62.4723C17.3425 62.7975 17.5206 63.2124 17.3167 63.7543C17.2833 63.8432 17.3644 64.0316 17.451 64.0991C17.7674 64.3453 18.1085 64.5598 18.4761 64.8108C18.9182 64.1151 19.0708 63.4485 18.7179 62.7374ZM25.0925 67.4426C23.7434 66.5458 22.4326 65.6744 21.0851 64.7785C19.9154 66.305 18.7805 67.7861 17.6157 69.3062C19.0084 70.2299 20.3381 71.1119 21.7072 72.02C21.9576 71.6937 22.1882 71.3933 22.4435 71.0606C21.5499 70.4613 20.6998 69.8912 19.8272 69.306C19.9705 69.1082 20.062 68.977 20.1585 68.8497C20.558 68.3229 20.5578 68.3245 21.0906 68.6744C21.6964 69.0723 22.3036 69.4678 22.9413 69.8847C23.168 69.5951 23.3736 69.3326 23.598 69.0459C22.7974 68.5046 22.0291 67.9852 21.2512 67.4592C21.3518 67.313 21.4134 67.2376 21.4597 67.1539C21.6928 66.7325 21.9471 66.6526 22.3653 66.9779C22.9124 67.4038 23.5092 67.768 24.0997 68.1343C24.2146 68.2055 24.4628 68.2332 24.5389 68.1623C24.7449 67.9706 24.8914 67.7148 25.0925 67.4426ZM61.0643 68.5643C60.4565 68.9646 59.8562 69.3768 59.2376 69.7594C59.1225 69.8306 58.8693 69.8539 58.7941 69.7812C58.5697 69.5638 58.402 69.2878 58.1885 69.0033C59.0049 68.4501 59.7609 67.9377 60.547 67.405C60.3045 67.1038 60.0965 66.8453 59.8771 66.573C59.2414 66.9909 58.6473 67.3796 58.0553 67.7714C57.4847 68.1488 57.4843 68.1512 57.0871 67.5765C57.0347 67.5008 57.0054 67.409 56.9526 67.2977C57.7817 66.7397 58.595 66.1924 59.448 65.6183C59.2067 65.3032 58.9945 65.026 58.759 64.7185C57.4081 65.6167 56.0941 66.4906 54.7403 67.3909C55.91 68.9123 57.0496 70.3945 58.2159 71.9114C59.5874 71.0012 60.9173 70.119 62.306 69.1977C62.0425 68.8508 61.8206 68.5587 61.5789 68.2402C61.3865 68.361 61.2233 68.4595 61.0643 68.5643ZM64.9915 64.9313C64.9101 65.0004 64.7 65.0361 64.6305 64.9826C63.8308 64.3652 63.0466 63.7276 62.2645 63.1003C62.9065 62.0732 63.5834 61.9184 64.5019 62.55C64.6741 62.6685 64.8417 62.796 64.9992 62.9333C65.8158 63.6444 65.8171 64.2311 64.9915 64.9313ZM64.8491 60.8598C63.8403 60.3628 62.8581 60.5901 62.0615 61.4196C61.4132 62.0949 60.7777 62.7826 60.0686 63.5373C61.6138 64.7725 63.1086 65.9676 64.6149 67.1715C65.2107 66.5312 65.7628 65.9408 66.3107 65.3467C66.4422 65.2042 66.5669 65.0543 66.6827 64.8988C67.3325 64.0265 67.4129 63.0186 66.7204 62.2717C66.1951 61.7051 65.5406 61.2004 64.8491 60.8598ZM29.3581 70.9958C29.248 71.3411 28.9789 71.4868 28.6406 71.4125C28.2531 71.3275 27.878 71.1861 27.4626 71.0585C27.9425 69.6369 27.8093 69.8079 29.0089 70.2949C29.3119 70.4178 29.4651 70.6603 29.3581 70.9958ZM30.2777 69.6697C29.2156 69.2338 28.1302 68.855 27.0667 68.4224C26.7321 68.2863 26.6113 68.3949 26.4895 68.6848C25.9318 70.0125 25.3584 71.3335 24.7919 72.6573C24.6861 72.9044 24.5856 73.1538 24.4633 73.449C25.0369 73.6603 25.5584 73.8524 26.1115 74.0561C26.3719 73.4508 26.6041 72.9012 26.8448 72.3553C27.0406 71.9114 27.3444 71.8764 27.5988 72.2955C27.7188 72.4931 27.7569 72.75 27.7947 72.986C27.874 73.4808 27.9185 73.9813 28.0005 74.4755C28.0207 74.5977 28.1027 74.7672 28.2014 74.8093C28.7334 75.0363 29.2797 75.2301 29.932 75.4773C29.6836 74.4232 29.9133 73.3988 29.1434 72.5414C29.3812 72.5267 29.5356 72.518 29.69 72.5075C30.6208 72.4443 31.23 71.7509 31.1852 70.8209C31.1561 70.2162 30.7736 69.8733 30.2777 69.6697ZM59.5471 48.0403C56.2302 49.4365 52.8854 49.5244 49.5695 48.0067C46.8336 46.7545 45.5232 44.5046 45.1633 41.6068C44.9756 40.0963 45.0704 38.5934 45.403 37.1194C45.9747 34.5866 47.407 32.7392 49.8755 31.7739C53.1284 30.5021 56.3525 30.5438 59.5408 31.9932C62.1112 33.1618 63.3742 35.2671 63.7573 37.9759C63.8522 38.6465 63.8719 39.3277 63.9263 40.004C63.949 41.4701 63.6742 42.872 63.154 44.2349C62.4781 46.0059 61.2807 47.3105 59.5471 48.0403ZM52.4864 54.8022C49.3719 57.5302 45.7447 59.1269 41.6355 59.5788C32.4419 60.5901 25.5025 55.3689 22.6091 50.5073C23.1153 50.3397 23.4641 50.3906 23.778 50.8366C24.7326 52.193 25.852 53.4029 27.1461 54.4494C27.4027 54.6569 27.6048 54.679 27.8783 54.4988C28.2426 54.2586 28.6207 54.0346 29.0108 53.8395C29.3559 53.6671 29.3586 53.5049 29.1293 53.2138C28.5686 52.5023 28.0279 51.7742 27.5064 51.0336C27.3997 50.8821 27.4126 50.6464 27.3704 50.4496C27.6503 50.5066 28.025 50.4703 28.1911 50.6392C28.5724 51.027 28.8418 51.5227 29.175 51.9606C30.1077 53.1863 30.1102 53.1802 31.5259 52.6699C32.0585 52.4779 32.5929 52.2877 33.1361 52.1297C33.4692 52.0329 33.5494 51.8926 33.3876 51.5771C33.2139 51.2385 33.0793 50.8797 32.926 50.5258C33.5805 50.2948 33.7367 50.3513 33.9928 50.86C34.4189 51.7067 34.4179 51.6985 35.3535 51.5826C36.4287 51.4494 37.507 51.3404 38.5811 51.1981C38.7086 51.1812 38.9119 51.0264 38.9172 50.9269C38.9345 50.6008 38.9992 50.4125 39.386 50.4209C39.7765 50.4294 39.8399 50.6499 39.8399 50.9577C39.8399 51.0045 39.8581 51.0514 39.88 51.1557C40.3426 51.1994 40.8209 51.2294 41.2946 51.2929C42.1765 51.4111 43.0578 51.536 43.9347 51.6856C44.2349 51.7369 44.43 51.6965 44.5428 51.3922C44.6099 51.2111 44.7124 51.0429 44.8014 50.8703C45.0538 50.3809 45.1951 50.3307 45.834 50.548C45.6585 51.0062 45.4832 51.4634 45.2945 51.956C46.3391 52.3349 47.3516 52.7118 48.3746 53.0579C48.4702 53.0903 48.6692 52.9592 48.7559 52.8521C49.2854 52.1982 49.8322 51.5535 50.3005 50.8568C50.6085 50.3987 50.9575 50.3629 51.5638 50.5307C50.8219 51.562 50.1222 52.5348 49.3722 53.5772C49.957 53.9069 50.5469 54.2635 51.1637 54.5656C51.2765 54.6208 51.5297 54.493 51.6645 54.3835C52.9307 53.3566 54.0083 52.1487 54.9472 50.8225C55.252 50.3921 55.5953 50.3677 56.1232 50.5132C55.1161 52.1635 53.8979 53.5658 52.4864 54.8022ZM16.4699 48.716C16.1366 48.7169 16.063 48.5796 16.0658 48.2804C16.0772 47.0982 16.0782 45.9157 16.0645 44.7337C16.0608 44.4165 16.1757 44.299 16.4875 44.3061C17.0377 44.3189 17.589 44.2956 18.1391 44.312C18.4588 44.3215 18.5598 44.1924 18.559 43.8835C18.5522 41.2275 18.5527 38.5716 18.5613 35.9156C18.5623 35.6003 18.4513 35.4845 18.1355 35.4948C17.5693 35.5133 17.0019 35.4932 16.4353 35.5056C16.1632 35.5117 16.0655 35.4043 16.0673 35.1347C16.0759 33.904 16.0808 32.6731 16.0658 31.4424C16.0614 31.0878 16.2442 31.0549 16.5217 31.0558C18.2545 31.0615 19.9873 31.0587 21.7202 31.0587C23.4045 31.0585 25.0891 31.0759 26.7729 31.0471C27.2396 31.0391 27.349 31.1982 27.3398 31.6304C27.3153 32.7636 27.3207 33.8978 27.3379 35.0311C27.3433 35.3873 27.2292 35.5235 26.866 35.509C26.3 35.4864 25.7323 35.5145 25.1659 35.4994C24.8686 35.4914 24.7742 35.6064 24.7751 35.8978C24.7827 38.5699 24.7827 41.242 24.7747 43.9142C24.7738 44.2077 24.8729 44.3188 25.1673 44.3115C25.7337 44.2976 26.301 44.3169 26.8675 44.3058C27.1796 44.2997 27.3427 44.381 27.3374 44.7411C27.3205 45.9231 27.3243 47.1055 27.3359 48.2877C27.339 48.5984 27.2334 48.7167 26.9155 48.716C23.4337 48.7085 19.9518 48.7074 16.4699 48.716ZM28.2311 42.585C28.229 42.2409 28.3574 42.135 28.6879 42.1403C29.6108 42.1551 30.5345 42.1288 31.4567 42.158C31.6419 42.1639 31.8985 42.2959 31.9923 42.4493C33.2965 44.5829 36.5925 45.3196 38.7521 44.6112C38.9367 44.5505 39.0718 44.339 39.2298 44.1975C39.0663 44.0181 38.935 43.742 38.7341 43.6751C37.3535 43.2148 35.9539 42.8118 34.5691 42.3634C33.4474 42.0002 32.2859 41.7055 31.2343 41.1917C29.4186 40.3047 28.2012 38.904 28.0634 36.7636C27.9175 34.498 29.004 32.6196 31.0644 31.6705C33.1737 30.6986 35.3706 30.6831 37.5735 31.2261C38.4856 31.4509 39.3484 31.8756 40.2877 32.2308C40.4332 31.3584 40.4377 31.3575 41.3491 31.3576C42.1426 31.3577 42.9364 31.3703 43.7295 31.3526C44.0529 31.3453 44.2127 31.4458 44.2129 31.7824C44.2136 33.5637 44.2267 35.345 44.2088 37.126C44.2076 37.2435 43.9873 37.4566 43.8646 37.4598C42.8127 37.4873 41.7597 37.4873 40.7075 37.4651C40.5639 37.4621 40.3871 37.3203 40.2874 37.1939C39.114 35.709 37.487 35.176 35.6955 34.998C35.2794 34.9567 34.8548 34.9717 34.4359 34.9947C34.0444 35.0161 33.6459 35.1587 33.5813 35.5766C33.5106 36.0344 33.9204 36.2033 34.2827 36.3105C36.2995 36.907 38.324 37.4774 40.338 38.0827C42.023 38.5892 43.3332 39.5996 44.1872 41.1484C45.3755 43.3039 44.786 46.6269 42.1642 48.0621C39.8257 49.3423 37.3499 49.3238 34.8544 48.6397C34.0824 48.4281 33.3587 48.0398 32.6129 47.7323C32.5122 47.6909 32.4118 47.6491 32.2807 47.5949C32.2601 47.722 32.2331 47.8135 32.2323 47.9052C32.2245 48.8554 32.2216 48.7037 31.4059 48.7102C30.499 48.7175 29.5919 48.6998 28.6853 48.7154C28.3514 48.721 28.2285 48.6107 28.2305 48.2693C28.2423 46.3746 28.2428 44.4796 28.2311 42.585ZM26.7111 24.5564C29.8753 22.008 33.4982 20.5264 37.5401 20.2026C42.0638 19.84 46.296 20.8266 50.1325 23.3126C52.496 24.8441 54.4523 26.7882 56.0085 29.1463C55.53 29.4287 55.1694 29.3695 54.8882 28.9743C53.9245 27.6198 52.7901 26.4298 51.5033 25.3779C51.217 25.1439 50.9984 25.121 50.6886 25.3291C50.2371 25.6323 49.7515 25.885 49.2736 26.1631C50.0069 27.1826 50.7103 28.1605 51.4144 29.1394C50.9395 29.4648 50.6082 29.4129 50.3263 29.0468C49.7638 28.3164 49.2051 27.5822 48.6147 26.8748C48.5178 26.7586 48.2407 26.6894 48.0915 26.7373C47.2143 27.0192 46.3537 27.353 45.4797 27.6455C45.1828 27.745 45.1437 27.9017 45.2519 28.1556C45.4022 28.5079 45.5493 28.8615 45.6978 29.2141C45.0763 29.4705 44.8818 29.4032 44.6149 28.8783C44.185 28.0327 44.1885 28.0573 43.239 28.1963C42.2155 28.3461 41.1855 28.4549 40.1558 28.5561C39.8864 28.5826 39.7227 28.6285 39.7454 28.9401C39.769 29.266 39.5702 29.3469 39.2832 29.3505C38.9786 29.3543 38.8196 29.2396 38.848 28.9227C38.8733 28.6397 38.7162 28.58 38.4681 28.5517C37.1515 28.4011 35.8375 28.2269 34.5203 28.0824C34.405 28.0697 34.2266 28.182 34.1578 28.2882C34.0097 28.5173 33.9391 28.7969 33.7876 29.0228C33.6927 29.1643 33.5216 29.2972 33.3602 29.339C33.2117 29.3776 33.0303 29.2893 32.8633 29.2568C32.8944 29.1049 32.9051 28.945 32.9607 28.8026C33.0824 28.4898 33.2267 28.1859 33.3847 27.8264C32.6366 27.5623 31.9388 27.3186 31.2429 27.0697C30.0785 26.653 30.0749 26.6485 29.2932 27.6432C28.9632 28.063 28.6215 28.4796 28.3455 28.9344C28.0748 29.3803 27.7224 29.4357 27.1894 29.313C27.7363 28.1647 28.5301 27.2367 29.3067 26.2473C28.7151 25.901 28.1572 25.5467 27.5693 25.2526C27.4458 25.1909 27.1744 25.3041 27.0342 25.4159C25.7607 26.4315 24.654 27.6129 23.7179 28.9425C23.3998 29.394 23.0429 29.3937 22.505 29.2825C23.6624 27.4201 25.0687 25.8791 26.7111 24.5564ZM40.0108 10.6868C23.7997 10.6723 10.6958 23.7171 10.6865 39.8785C10.6773 56.0833 23.7231 69.1674 39.9025 69.1798C56.089 69.1922 69.1748 56.1222 69.1796 39.938C69.1843 23.7979 56.1246 10.7013 40.0108 10.6868ZM40.2851 32.2487C40.2879 32.2453 40.2909 32.2416 40.2971 32.2351C40.2944 32.2341 40.2918 32.233 40.289 32.232C40.2883 32.2364 40.2877 32.2401 40.2869 32.2445C40.2867 32.2461 40.2858 32.2473 40.2851 32.2487ZM40.0528 78.8481C18.4941 78.8738 1.12221 61.4986 1.09363 39.9691C1.06515 18.5219 18.6019 1.01543 39.9709 1.10661C61.4419 1.07181 78.8342 18.4509 78.8505 39.9568C78.8669 61.4314 61.5174 78.8226 40.0528 78.8481ZM40.1427 2.36385e-05C17.9352 -0.0236945 0.0198971 17.8041 -2.99696e-05 39.9463C-0.00362657 61.9384 17.6983 79.8719 39.8355 79.9483C61.9624 80.0246 79.8674 62.2342 79.9477 40.1296C80.0281 18.0063 62.1465 0.0236445 40.1427 2.36385e-05Z" fill="white"/>
</svg>
