<?xml version="1.0" encoding="UTF-8"?>
<svg width="150px" height="41px" viewBox="0 0 150 41" version="1.1" xmlns="http://www.w3.org/2000/svg" xmlns:xlink="http://www.w3.org/1999/xlink">
    <title>Group 6</title>
    <defs>
        <polygon id="path-1" points="0 0.294604651 15.5877209 0.294604651 15.5877209 26.9764651 0 26.9764651"></polygon>
    </defs>
    <g id="verstka" stroke="none" stroke-width="1" fill="none" fill-rule="evenodd">
        <g id="Главная-страница-Copy" transform="translate(-43.000000, -25.000000)">
            <g id="Group-6" transform="translate(43.000000, 25.000000)">
                <g id="Group-37-Copy">
                    <path d="M19.0014884,22.939907 L34.5745116,13.1073488 L34.5745116,16.1380465 C34.5735814,20.7352558 34.5726512,25.3315349 34.5782326,29.9296744 L31.4266047,31.9166512 C27.3512558,34.487814 23.1531163,37.1352558 19.0014884,39.7715349 L19.0014884,22.939907 Z" id="Fill-30" fill="#FFFFFF"></path>
                    <polygon id="Fill-32" fill="#FFFFFF" points="1.53683721 9.84306977 17.2866047 0.000279069767 33.0363721 9.84306977 17.2866047 19.6877209"></polygon>
                    <g id="Group-36" transform="translate(0.000000, 12.806791)">
                        <mask id="mask-2" fill="white">
                            <use xlink:href="#path-1"></use>
                        </mask>
                        <g id="Clip-35"></g>
                        <polygon id="Fill-34" fill="#FFFFFF" mask="url(#mask-2)" points="-0.000186046512 17.0890233 -0.000186046512 0.294604651 15.5877209 10.1829767 15.5877209 26.9764651"></polygon>
                    </g>
                </g>
                <path d="M67.03,36 L67.03,29.136 L68.876,29.136 L72.854,36 L75.272,36 L71.06,28.928 C72.204,28.5986667 73.0923333,27.953 73.725,26.991 C74.3576667,26.029 74.674,24.8026667 74.674,23.312 C74.674,21.5613333 74.2146667,20.205 73.296,19.243 C72.3773333,18.281 71.06,17.8 69.344,17.8 L69.344,17.8 L64.898,17.8 L64.898,36 L67.03,36 Z M69.318,27.134 L67.03,27.134 L67.03,19.802 L69.344,19.802 C70.384,19.802 71.1726667,20.1053333 71.71,20.712 C72.2473333,21.3186667 72.516,22.2113333 72.516,23.39 C72.516,24.6033333 72.243,25.5306667 71.697,26.172 C71.151,26.8133333 70.358,27.134 69.318,27.134 L69.318,27.134 Z M81.746,36.338 C82.8033333,36.338 83.7176667,36.1083333 84.489,35.649 C85.2603333,35.1896667 85.8453333,34.583 86.244,33.829 C86.6426667,33.075 86.842,32.256 86.842,31.372 C86.842,30.436 86.634,29.6256667 86.218,28.941 C85.802,28.2563333 85.2993333,27.693 84.71,27.251 C84.1206667,26.809 83.3493333,26.3106667 82.396,25.756 C81.616,25.3053333 81.0006667,24.9196667 80.55,24.599 C80.0993333,24.2783333 79.7266667,23.9056667 79.432,23.481 C79.1373333,23.0563333 78.99,22.5666667 78.99,22.012 C78.99,21.2493333 79.2326667,20.6426667 79.718,20.192 C80.2033333,19.7413333 80.8706667,19.516 81.72,19.516 C82.5346667,19.516 83.1846667,19.763 83.67,20.257 C84.1553333,20.751 84.4153333,21.4833333 84.45,22.454 L84.45,22.454 L86.608,22.454 C86.556,20.946 86.0923333,19.737 85.217,18.827 C84.3416667,17.917 83.1673333,17.462 81.694,17.462 C80.7406667,17.462 79.8956667,17.657 79.159,18.047 C78.4223333,18.437 77.8503333,18.9786667 77.443,19.672 C77.0356667,20.3653333 76.832,21.1366667 76.832,21.986 C76.832,22.8873333 77.0356667,23.6673333 77.443,24.326 C77.8503333,24.9846667 78.3356667,25.5306667 78.899,25.964 C79.4623333,26.3973333 80.2293333,26.9086667 81.2,27.498 C81.98,27.966 82.5996667,28.3646667 83.059,28.694 C83.5183333,29.0233333 83.8996667,29.409 84.203,29.851 C84.5063333,30.293 84.658,30.7913333 84.658,31.346 C84.658,32.23 84.4066667,32.9406667 83.904,33.478 C83.4013333,34.0153333 82.6733333,34.284 81.72,34.284 C80.8013333,34.284 80.0733333,34.0153333 79.536,33.478 C78.9986667,32.9406667 78.7213333,32.1693333 78.704,31.164 L78.704,31.164 L76.546,31.164 C76.5633333,32.7413333 77.0443333,33.998 77.989,34.934 C78.9336667,35.87 80.186,36.338 81.746,36.338 Z M100.102,36.286 C101.679333,36.286 102.936,35.805 103.872,34.843 C104.808,33.881 105.284667,32.5506667 105.302,30.852 L105.302,30.852 L105.302,26.198 L100.05,26.198 L100.05,28.096 L103.248,28.096 L103.248,30.852 C103.248,31.9613333 102.966333,32.8063333 102.403,33.387 C101.839667,33.9676667 101.072667,34.258 100.102,34.258 C99.1486667,34.258 98.3946667,33.9546667 97.84,33.348 C97.2853333,32.7413333 97.008,31.8486667 97.008,30.67 L97.008,30.67 L97.008,23.13 C97.008,21.9166667 97.268,21.0153333 97.788,20.426 C98.308,19.8366667 99.0446667,19.542 99.998,19.542 C101.939333,19.542 102.962,20.66 103.066,22.896 L103.066,22.896 L105.172,22.896 C105.102667,21.1626667 104.613,19.8323333 103.703,18.905 C102.793,17.9776667 101.558,17.514 99.998,17.514 C98.4033333,17.514 97.151,17.995 96.241,18.957 C95.331,19.919 94.876,21.3013333 94.876,23.104 L94.876,23.104 L94.876,30.67 C94.876,32.438 95.3483333,33.816 96.293,34.804 C97.2376667,35.792 98.5073333,36.286 100.102,36.286 Z M110.138,36 L110.138,27.758 C110.138,26.5793333 110.411,25.6563333 110.957,24.989 C111.503,24.3216667 112.235333,23.988 113.154,23.988 C113.778,23.988 114.35,24.0833333 114.87,24.274 L114.87,24.274 L114.87,22.194 C114.488667,22.0726667 114.020667,22.012 113.466,22.012 C111.854,22.012 110.675333,22.6793333 109.93,24.014 L109.93,24.014 L109.644,22.324 L108.11,22.324 L108.11,36 L110.138,36 Z M121.058,36.312 C122.514,36.312 123.658,35.87 124.49,34.986 C125.322,34.102 125.738,32.854 125.738,31.242 L125.738,31.242 L125.738,27.056 C125.738,25.444 125.322,24.196 124.49,23.312 C123.658,22.428 122.514,21.986 121.058,21.986 C119.602,21.986 118.453667,22.428 117.613,23.312 C116.772333,24.196 116.352,25.444 116.352,27.056 L116.352,27.056 L116.352,31.242 C116.352,32.854 116.772333,34.102 117.613,34.986 C118.453667,35.87 119.602,36.312 121.058,36.312 Z M121.058,34.336 C120.208667,34.336 119.558667,34.0803333 119.108,33.569 C118.657333,33.0576667 118.432,32.282 118.432,31.242 L118.432,31.242 L118.432,27.056 C118.432,26.016 118.657333,25.2446667 119.108,24.742 C119.558667,24.2393333 120.208667,23.988 121.058,23.988 C121.907333,23.988 122.557333,24.2393333 123.008,24.742 C123.458667,25.2446667 123.684,26.016 123.684,27.056 L123.684,27.056 L123.684,31.242 C123.684,32.282 123.458667,33.0576667 123.008,33.569 C122.557333,34.0803333 121.907333,34.336 121.058,34.336 Z M132.29,36.338 C133.07,36.338 133.750333,36.169 134.331,35.831 C134.911667,35.493 135.384,35.012 135.748,34.388 L135.748,34.388 L136.008,36 L137.542,36 L137.542,22.324 L135.514,22.324 L135.514,30.696 C135.514,31.8573333 135.267,32.763 134.773,33.413 C134.279,34.063 133.616,34.388 132.784,34.388 C132.004,34.388 131.436333,34.102 131.081,33.53 C130.725667,32.958 130.548,32.048 130.548,30.8 L130.548,30.8 L130.548,22.324 L128.52,22.324 L128.52,30.982 C128.52,32.802 128.849333,34.1496667 129.508,35.025 C130.166667,35.9003333 131.094,36.338 132.29,36.338 Z M142.768,40.68 L142.768,35.012 C143.132,35.428 143.565333,35.7486667 144.068,35.974 C144.570667,36.1993333 145.099333,36.312 145.654,36.312 C146.988667,36.312 148.041667,35.8613333 148.813,34.96 C149.584333,34.0586667 149.97,32.776 149.97,31.112 L149.97,31.112 L149.97,27.29 C149.97,25.626 149.575667,24.3303333 148.787,23.403 C147.998333,22.4756667 146.954,22.012 145.654,22.012 C145.03,22.012 144.436333,22.155 143.873,22.441 C143.309667,22.727 142.854667,23.104 142.508,23.572 L142.508,23.572 L142.3,22.298 L140.766,22.298 L140.766,40.68 L142.768,40.68 Z M145.29,34.388 C144.51,34.388 143.894667,34.089 143.444,33.491 C142.993333,32.893 142.768,32.1 142.768,31.112 L142.768,31.112 L142.768,27.238 C142.768,26.1633333 143.002,25.34 143.47,24.768 C143.938,24.196 144.544667,23.91 145.29,23.91 C147.023333,23.91 147.89,25.0366667 147.89,27.29 L147.89,27.29 L147.89,31.112 C147.89,32.2386667 147.673333,33.0663333 147.24,33.595 C146.806667,34.1236667 146.156667,34.388 145.29,34.388 Z" id="RSGroup" fill="#FFFFFF" fill-rule="nonzero"></path>
                <path d="M65.015,12 L65.015,3.901 L68.213,3.901 L68.213,2.9 L63.949,2.9 L63.949,12 L65.015,12 Z M68.993,14.34 L68.993,11.506 C69.175,11.714 69.3916667,11.8743333 69.643,11.987 C69.8943333,12.0996667 70.1586667,12.156 70.436,12.156 C71.1033333,12.156 71.6298333,11.9306667 72.0155,11.48 C72.4011667,11.0293333 72.594,10.388 72.594,9.556 L72.594,9.556 L72.594,7.645 C72.594,6.813 72.3968333,6.16516667 72.0025,5.7015 C71.6081667,5.23783333 71.086,5.006 70.436,5.006 C70.124,5.006 69.8271667,5.0775 69.5455,5.2205 C69.2638333,5.3635 69.0363333,5.552 68.863,5.786 L68.863,5.786 L68.759,5.149 L67.992,5.149 L67.992,14.34 L68.993,14.34 Z M70.254,11.194 C69.864,11.194 69.5563333,11.0445 69.331,10.7455 C69.1056667,10.4465 68.993,10.05 68.993,9.556 L68.993,9.556 L68.993,7.619 C68.993,7.08166667 69.11,6.67 69.344,6.384 C69.578,6.098 69.8813333,5.955 70.254,5.955 C71.1206667,5.955 71.554,6.51833333 71.554,7.645 L71.554,7.645 L71.554,9.556 C71.554,10.1193333 71.4456667,10.5331667 71.229,10.7975 C71.0123333,11.0618333 70.6873333,11.194 70.254,11.194 Z M74.063,14.47 C74.531,14.47 74.895,14.3205 75.155,14.0215 C75.415,13.7225 75.6403333,13.274 75.831,12.676 L75.831,12.676 L78.093,5.162 L77.04,5.162 L76.169,8.061 L75.662,9.777 L75.116,8.048 L74.128,5.162 L73.023,5.162 L75.207,11.337 L74.856,12.507 C74.7606667,12.8276667 74.6415,13.0703333 74.4985,13.235 C74.3555,13.3996667 74.154,13.482 73.894,13.482 L73.894,13.482 L73.504,13.482 L73.504,14.47 L74.063,14.47 Z M79.991,12 L79.991,6.111 L82.24,6.111 L82.24,12 L83.267,12 L83.267,5.162 L78.977,5.162 L78.977,12 L79.991,12 Z M85.893,12 L85.893,6.111 L88.142,6.111 L88.142,12 L89.169,12 L89.169,5.162 L84.879,5.162 L84.879,12 L85.893,12 Z M92.549,12.169 C93.2163333,12.169 93.732,11.8916667 94.096,11.337 L94.096,11.337 L94.187,12 L95.032,12 L95.032,7.359 C95.032,6.61366667 94.8435,6.033 94.4665,5.617 C94.0895,5.201 93.5586667,4.993 92.874,4.993 C92.2153333,4.993 91.6823333,5.17716667 91.275,5.5455 C90.8676667,5.91383333 90.651,6.41 90.625,7.034 L90.625,7.034 L91.652,7.034 C91.678,6.696 91.7993333,6.436 92.016,6.254 C92.2326667,6.072 92.51,5.981 92.848,5.981 C93.6193333,5.981 94.005,6.44466667 94.005,7.372 L94.005,7.372 L94.005,7.983 L92.835,7.983 C92.0723333,7.983 91.4786667,8.16066667 91.054,8.516 C90.6293333,8.87133333 90.417,9.38266667 90.417,10.05 C90.417,10.7 90.6141667,11.2156667 91.0085,11.597 C91.4028333,11.9783333 91.9163333,12.169 92.549,12.169 Z M92.744,11.22 C92.3453333,11.22 92.0311667,11.1203333 91.8015,10.921 C91.5718333,10.7216667 91.457,10.4356667 91.457,10.063 C91.457,9.673 91.574,9.37616667 91.808,9.1725 C92.042,8.96883333 92.38,8.867 92.822,8.867 L92.822,8.867 L94.005,8.867 L94.005,9.92 C94.005,10.3186667 93.8923333,10.635 93.667,10.869 C93.4416667,11.103 93.134,11.22 92.744,11.22 Z M100.544,12 L100.544,9.465 L101.038,8.906 L103.144,12 L104.353,12 L101.701,8.1 L104.028,5.162 L102.767,5.162 L101.454,6.917 C101.341333,7.06433333 101.241667,7.20083333 101.155,7.3265 C101.068333,7.45216667 100.990333,7.55833333 100.921,7.645 C100.895,7.67966667 100.769333,7.85733333 100.544,8.178 L100.544,8.178 L100.544,5.162 L99.53,5.162 L99.53,12 L100.544,12 Z M107.044,12.156 C107.772,12.156 108.344,11.935 108.76,11.493 C109.176,11.051 109.384,10.427 109.384,9.621 L109.384,9.621 L109.384,7.528 C109.384,6.722 109.176,6.098 108.76,5.656 C108.344,5.214 107.772,4.993 107.044,4.993 C106.316,4.993 105.741833,5.214 105.3215,5.656 C104.901167,6.098 104.691,6.722 104.691,7.528 L104.691,7.528 L104.691,9.621 C104.691,10.427 104.901167,11.051 105.3215,11.493 C105.741833,11.935 106.316,12.156 107.044,12.156 Z M107.044,11.168 C106.619333,11.168 106.294333,11.0401667 106.069,10.7845 C105.843667,10.5288333 105.731,10.141 105.731,9.621 L105.731,9.621 L105.731,7.528 C105.731,7.008 105.843667,6.62233333 106.069,6.371 C106.294333,6.11966667 106.619333,5.994 107.044,5.994 C107.468667,5.994 107.793667,6.11966667 108.019,6.371 C108.244333,6.62233333 108.357,7.008 108.357,7.528 L108.357,7.528 L108.357,9.621 C108.357,10.141 108.244333,10.5288333 108.019,10.7845 C107.793667,11.0401667 107.468667,11.168 107.044,11.168 Z M111.802,12 L111.802,8.776 C111.802,8.36866667 111.789,7.983 111.763,7.619 C111.745667,7.307 111.737,7.07733333 111.737,6.93 L111.737,6.93 L111.789,6.904 C111.988333,7.53666667 112.179,8.087 112.361,8.555 L112.361,8.555 L113.102,10.258 L114.077,10.258 L114.818,8.555 C114.956667,8.23433333 115.108333,7.80533333 115.273,7.268 C115.299,7.216 115.342333,7.09466667 115.403,6.904 L115.403,6.904 L115.455,6.93 L115.429,7.437 C115.394333,7.97433333 115.377,8.42066667 115.377,8.776 L115.377,8.776 L115.377,12 L116.339,12 L116.339,5.162 L115.312,5.162 L114.09,7.944 C113.847333,8.542 113.687,8.958 113.609,9.192 L113.609,9.192 L113.57,9.192 L113.57,9.192 L113.505802,9.00903704 C113.416675,8.76412346 113.277741,8.40911111 113.089,7.944 L113.089,7.944 L111.88,5.162 L110.84,5.162 L110.84,12 L111.802,12 Z M118.965,12 L118.965,6.111 L121.214,6.111 L121.214,12 L122.241,12 L122.241,5.162 L117.951,5.162 L117.951,12 L118.965,12 Z M125.621,12.169 C126.288333,12.169 126.804,11.8916667 127.168,11.337 L127.168,11.337 L127.259,12 L128.104,12 L128.104,7.359 C128.104,6.61366667 127.9155,6.033 127.5385,5.617 C127.1615,5.201 126.630667,4.993 125.946,4.993 C125.287333,4.993 124.754333,5.17716667 124.347,5.5455 C123.939667,5.91383333 123.723,6.41 123.697,7.034 L123.697,7.034 L124.724,7.034 C124.75,6.696 124.871333,6.436 125.088,6.254 C125.304667,6.072 125.582,5.981 125.92,5.981 C126.691333,5.981 127.077,6.44466667 127.077,7.372 L127.077,7.372 L127.077,7.983 L125.907,7.983 C125.144333,7.983 124.550667,8.16066667 124.126,8.516 C123.701333,8.87133333 123.489,9.38266667 123.489,10.05 C123.489,10.7 123.686167,11.2156667 124.0805,11.597 C124.474833,11.9783333 124.988333,12.169 125.621,12.169 Z M125.816,11.22 C125.417333,11.22 125.103167,11.1203333 124.8735,10.921 C124.643833,10.7216667 124.529,10.4356667 124.529,10.063 C124.529,9.673 124.646,9.37616667 124.88,9.1725 C125.114,8.96883333 125.452,8.867 125.894,8.867 L125.894,8.867 L127.077,8.867 L127.077,9.92 C127.077,10.3186667 126.964333,10.635 126.739,10.869 C126.513667,11.103 126.206,11.22 125.816,11.22 Z M130.73,12 L130.73,8.958 L132.979,8.958 L132.979,12 L134.006,12 L134.006,5.162 L132.979,5.162 L132.979,7.996 L130.73,7.996 L130.73,5.162 L129.716,5.162 L129.716,12 L130.73,12 Z M136.658,12 L138.374,8.503 C138.486667,8.26033333 138.612333,7.96133333 138.751,7.606 C138.889667,7.25066667 138.985,6.99066667 139.037,6.826 L139.037,6.826 L139.063,6.839 C139.028333,7.39366667 139.011,8.06533333 139.011,8.854 L139.011,8.854 L139.011,12 L139.999,12 L139.999,5.162 L138.959,5.162 L137.217,8.802 C137.017667,9.25266667 136.818333,9.74666667 136.619,10.284 L136.619,10.284 L136.593,10.258 C136.610333,9.842 136.619,9.27 136.619,8.542 L136.619,8.542 L136.619,5.162 L135.618,5.162 L135.618,12 L136.658,12 Z M143.821,4.096 C144.271667,4.096 144.631333,3.96166667 144.9,3.693 C145.168667,3.42433333 145.311667,3.04733333 145.329,2.562 L145.329,2.562 L144.536,2.562 C144.51,3.07333333 144.267333,3.329 143.808,3.329 C143.366,3.329 143.123333,3.07333333 143.08,2.562 L143.08,2.562 L142.3,2.562 C142.317333,3.04733333 142.460333,3.42433333 142.729,3.693 C142.997667,3.96166667 143.361667,4.096 143.821,4.096 Z M142.651,12 L144.367,8.503 C144.479667,8.26033333 144.605333,7.96133333 144.744,7.606 C144.882667,7.25066667 144.978,6.99066667 145.03,6.826 L145.03,6.826 L145.056,6.839 C145.021333,7.39366667 145.004,8.06533333 145.004,8.854 L145.004,8.854 L145.004,12 L145.992,12 L145.992,5.162 L144.952,5.162 L143.21,8.802 C143.010667,9.25266667 142.811333,9.74666667 142.612,10.284 L142.612,10.284 L142.586,10.258 C142.603333,9.842 142.612,9.27 142.612,8.542 L142.612,8.542 L142.612,5.162 L141.611,5.162 L141.611,12 L142.651,12 Z" id="Группакомпаний" fill="#FFFFFF" fill-rule="nonzero"></path>
            </g>
        </g>
    </g>
</svg>