<svg xmlns="http://www.w3.org/2000/svg" width="36" height="35" viewBox="0 0 36 35"><g><g><path fill="#231f20" d="M25.764 1.301c.166.483.357.972.422 1.474.133 1.017.114 2.042-.15 3.044-.32 1.22-.47 1.34-1.712 1.322-.465-.007-.942-.047-1.387-.17-.235-.064-.483-.3-.603-.523-.511-.956-1.122-1.283-2.194-1.071-1.292.255-2.266 1.005-2.994 2.065-.19.279-.27.687-.271 1.035-.004 1.917.044 3.833.054 5.75.011 2.28.003 4.56.003 6.842h.111c.06 4.114.122 8.228.181 12.343.003.153.005.307-.012.458-.08.687-.508 1.087-1.316 1.104a98.059 98.059 0 0 1-4.405.002c-.931-.022-1.417-.575-1.376-1.511.093-2.16.212-4.32.318-6.48.104-2.101.204-4.203.307-6.305l.323-6.621c.082-1.68.195-3.358.225-5.038.011-.659-.107-1.336-.271-1.978-.3-1.171-1.019-1.67-2.22-1.62a9.87 9.87 0 0 0-3.54.842c-1.395.61-2.752 1.308-4.121 1.976-.326.16-.619.201-.904-.072-.246-.235-.312-.542-.122-.824C2.474 3.824 5.449 1.136 9.779.338c.76-.14 1.533-.236 2.304-.272 1.653-.076 3.31-.149 4.952.16a3.475 3.475 0 0 1 1.874.973c.297.298.614.583.955.829.449.325.945.334 1.424.052.292-.173.595-.346.838-.577.55-.525 1.222-.674 1.938-.7.34-.012.68.035 1.02.036.337.002.576.16.68.462zm-9.745 32.43l-.386-24.205H12.5L11.32 33.73zm8.794-28.054c.302-1.11.296-2.229.08-3.35-.02-.1-.115-.264-.18-.267-.567-.023-1.148-.123-1.66.26-.421.315-.841.643-1.3.895-.752.413-1.55.418-2.284-.028-.486-.295-.931-.672-1.346-1.063a2.63 2.63 0 0 0-1.379-.715c-1.505-.274-3.02-.18-4.533-.128-2.243.078-4.351.645-6.273 1.836-1.27.786-2.351 1.783-3.34 2.943.084.012.097.018.105.014.127-.059.255-.117.38-.18 1.293-.65 2.63-1.177 4.053-1.469.876-.18 1.757-.362 2.649-.151 1.436.34 2.165 1.354 2.492 2.718.1.417.156.844.23 1.253h3.041c.212-.547.316-1.093.605-1.508.893-1.282 2.08-2.182 3.64-2.535 1.418-.321 2.615.073 3.32 1.222.255.415.56.506.967.513.13.003.26-.013.388.003.21.026.296-.084.345-.263zm10.469 9.824c.665.463.665 1.38.003 1.853-.185.131-.224.262-.223.464.002.268.017.553-.064.801-.2.614-.693.815-1.328.792-.007.113-.02.215-.02.317 0 2.41-.01 4.82.008 7.23.003.341.089.706.227 1.02.642 1.455.608 2.893.006 4.35-.178.43-.255.902-.388 1.351-.175.59-.585.892-1.194.892-.47 0-.94.004-1.41-.001-.57-.007-.97-.286-1.129-.828-.328-1.113-.65-2.228-.943-3.35-.058-.224-.009-.49.046-.725.098-.421.22-.84.365-1.247.268-.75.359-1.515.349-2.313-.027-2.115-.007-4.231-.007-6.347 0-.104-.009-.208-.014-.334-1.047-.082-1.406-.46-1.4-1.48.002-.288-.062-.48-.31-.672-.55-.426-.541-1.313.037-1.714.724-.503.795-1.204.718-1.963-.118-1.164-.607-2.205-1.114-3.242a2.341 2.341 0 0 1-.243-.966c-.023-2.01-.006-4.02-.018-6.03-.012-2.019.935-3.144 2.942-3.295 1.12-.084 2.257-.052 3.377.044 1.335.115 2.366 1.273 2.406 2.665.047 1.68-.022 3.362.032 5.041.041 1.288-.08 2.493-.74 3.65a4.802 4.802 0 0 0-.627 2.815c.044.5.218.918.656 1.222zm-2.926 17.895l.746-2.793h-2.976c.258.902.498 1.757.754 2.607.024.079.15.174.233.178.408.018.817.008 1.243.008zM30.81 19.864c0 2.37.003 4.741-.005 7.112-.001.253-.047.512-.111.758-.137.53-.299 1.052-.456 1.599h2.765c-.065-.218-.112-.41-.179-.597-.293-.824-.41-1.665-.396-2.547.034-2.123.013-4.248.014-6.372v-.391H30.81v.438zm3.102-1.665l-.057-.585h-4.44v.585zm.497-1.836c-.928-.785-1.105-1.773-1.004-2.846.124-1.32.654-2.508 1.243-3.674.062-.121.126-.26.126-.391.007-2.138.018-4.277-.003-6.415-.01-1.092-.653-1.732-1.733-1.76a57.975 57.975 0 0 0-2.744-.005c-1.214.026-1.838.7-1.834 1.917.008 2.056.005 4.112.017 6.168 0 .178.06.366.128.534.299.724.675 1.423.905 2.168.462 1.5.65 2.997-.604 4.304zM30.806 2.988c.002 1.009 0 2.018 0 3.028 0 1.044.004 2.088 0 3.133-.003.421-.226.694-.57.723-.377.033-.662-.278-.663-.736-.003-1.396-.002-2.793-.002-4.19 0-.657 0-1.314.002-1.971.002-.506.213-.778.605-.783.41-.006.627.266.628.796zm2.844 6.167c0 .439-.234.725-.589.73-.367.005-.613-.293-.613-.745 0-2.084 0-4.167.002-6.25 0-.453.222-.702.607-.698.36.003.589.24.591.641.005 1.072.002 2.143.002 3.214v3.108z"/></g></g></svg>