<svg width="36" height="36" viewBox="0 0 36 36" fill="none" xmlns="http://www.w3.org/2000/svg">
<g clip-path="url(#clip0_34_1208)">
<path d="M35.9999 14.9626C35.9999 12.239 35.9999 9.51537 35.999 6.79177C35.9982 5.44845 35.235 4.4346 34.0535 4.20784C33.692 4.13882 32.0932 4.10103 29.2997 4.0961C29.188 4.07967 29.0689 4.07227 28.944 4.07145C25.6592 4.06899 22.3745 4.06899 19.0905 4.06899H15.4336C14.0172 4.06899 12.6007 4.06817 11.1835 4.06734C8.39826 4.06734 5.61386 4.06652 2.82946 4.06817C1.1115 4.06981 0.0023373 5.165 0.0015157 6.85832C0.0015157 11.8857 0.0015157 16.9139 0.0015157 21.9404C-0.0025923 23.3018 -0.0001275 26.907 0.0015157 28.4466V29.0612C0.0023373 30.8317 1.09589 31.931 2.85575 31.9319C6.69262 31.9319 10.3019 31.9327 13.7321 31.9327C20.8266 31.9327 27.157 31.9311 33.1563 31.9278C33.4997 31.9278 33.7922 31.8924 34.0502 31.8193C35.2703 31.4742 35.999 30.4908 35.9999 29.1902C36.0015 26.5808 36.0015 23.9714 36.0007 21.3612V18.1997V14.9617L35.9999 14.9626ZM34.1628 30.0882C33.9212 30.3289 33.5712 30.4555 33.1489 30.4555C33.1448 30.4555 33.1415 30.4555 33.1374 30.4555C29.3926 30.4349 25.5853 30.4382 21.9029 30.4407C20.6089 30.4415 19.3132 30.4407 18.0208 30.4423H13.3492C9.80976 30.4423 6.27032 30.4423 2.73087 30.4415C1.94788 30.4415 1.5034 30.0134 1.48039 29.2362C1.473 28.9758 1.47546 28.7096 1.47793 28.4524C1.47957 28.3193 1.48039 28.187 1.48039 28.0539V26.8519C1.48039 25.2005 1.47875 22.4531 1.47793 21.7416V19.7204C1.48204 15.5245 1.4845 11.1857 1.46889 6.91829C1.46725 6.49188 1.58884 6.15338 1.83039 5.91183C2.06866 5.67357 2.42523 5.54376 2.83521 5.54376C2.83932 5.54376 2.84343 5.54376 2.84753 5.54376C6.06984 5.5643 9.34638 5.56183 12.5153 5.55855C13.5924 5.55772 14.6695 5.5569 15.7475 5.5569L15.8707 5.55855C18.6428 5.55855 21.4148 5.55855 24.1853 5.55855C25.2082 5.56512 29.0417 5.56101 31.3332 5.55855C32.3199 5.55772 33.0503 5.5569 33.2073 5.55772C34.0905 5.56019 34.5202 5.98906 34.5202 6.87064C34.5202 8.91806 34.5202 10.9647 34.5202 13.0121C34.5202 18.272 34.5185 23.7101 34.5317 29.0596C34.5325 29.4917 34.4051 29.8475 34.1628 30.089V30.0882ZM27.1471 14.1065C26.4471 14.2453 25.7718 14.5337 25.1186 14.8114C24.974 14.873 24.8286 14.9346 24.684 14.9946C24.3184 15.1466 24.0785 15.1943 23.7852 15.0365C23.62 14.9478 23.5822 14.9133 23.5855 14.7769C23.5978 14.3193 23.5962 13.8542 23.5954 13.404V13.0302C23.5954 12.7681 23.5954 12.5068 23.5954 12.2447C23.5954 11.4617 23.597 10.6516 23.588 9.85469C23.5847 9.55316 23.5132 9.33954 23.3694 9.20234C23.224 9.06349 23.0145 9.00187 22.7097 9.01255C22.5051 9.01912 22.2849 9.04295 22.0368 9.08649C20.0231 9.43814 18.5212 11.5373 18.8219 13.5774C18.932 14.3234 19.2442 14.9921 19.5465 15.6387C19.6147 15.7842 19.6821 15.9296 19.7478 16.0758C19.8908 16.3938 19.9425 16.637 19.7864 16.9426C19.6928 17.125 19.6476 17.1571 19.5005 17.1546C18.9081 17.1456 18.3059 17.1472 17.7242 17.148C17.5016 17.148 17.2789 17.1488 17.0563 17.1488L16.9338 17.1554C16.7276 17.1554 16.5214 17.1554 16.316 17.1538C15.7351 17.1521 15.1337 17.1505 14.543 17.1579C14.2801 17.1612 14.0796 17.2326 13.9465 17.3707C13.8126 17.5095 13.7485 17.7157 13.7551 17.9828C13.7608 18.1939 13.7855 18.4256 13.8315 18.6902C14.0155 19.755 14.6818 20.7179 15.6604 21.3316C16.62 21.933 17.7513 22.1121 18.7644 21.8205C19.3231 21.6602 19.8637 21.4212 20.3878 21.1895C20.5785 21.1057 20.7748 21.0186 20.9687 20.9372C21.2555 20.8165 21.5028 20.8099 21.6646 20.9175C21.8191 21.0202 21.9004 21.2248 21.9004 21.5082C21.9004 21.993 21.8996 22.4777 21.8979 22.9625C21.8963 23.9829 21.8938 25.0387 21.8979 26.0772C21.8988 26.4198 21.9645 26.6375 22.1116 26.7813C22.2537 26.9209 22.464 26.9842 22.7918 26.9842C22.8025 26.9842 22.8132 26.9842 22.8239 26.9842C24.0579 26.9694 25.2345 26.3204 25.9723 25.2473C26.7265 24.1505 26.913 22.7793 26.4693 21.5797C26.2976 21.1147 26.0906 20.6571 25.8909 20.2134C25.803 20.0179 25.7143 19.8223 25.6288 19.626C25.5541 19.4534 25.573 19.253 25.6789 19.0903C25.7792 18.9375 25.9336 18.8496 26.1037 18.8496C26.9647 18.8487 27.825 18.8496 28.686 18.8479C28.8725 18.8479 29.0582 18.8479 29.2439 18.8479C29.805 18.8479 30.3851 18.8479 30.9561 18.8372C31.2231 18.8323 31.4178 18.7625 31.5501 18.6244C31.684 18.4848 31.7456 18.2843 31.7399 18.0099C31.7349 17.7954 31.7111 17.5638 31.6659 17.3017C31.495 16.301 30.8788 15.3701 29.9743 14.7473C29.1116 14.1541 28.0821 13.92 27.1488 14.1048L27.1471 14.1065ZM19.5128 19.9686C18.8794 20.2594 18.2821 20.5338 17.5599 20.4714C16.5543 20.3835 15.5651 19.5446 15.3613 18.6384H19.6213L20.0674 19.7237C19.8793 19.8001 19.6928 19.8856 19.512 19.9686H19.5128ZM20.82 14.8796C20.5021 14.1919 20.2022 13.542 20.2794 12.7566C20.3739 11.7969 21.216 10.8061 22.119 10.59V14.8656L21.0213 15.3241C20.9564 15.1737 20.8874 15.025 20.8208 14.8796H20.82ZM22.7204 19.6876C22.7204 19.6876 22.7138 19.6876 22.7105 19.6876C22.2841 19.6851 21.8758 19.5052 21.5586 19.1823C21.2325 18.8496 21.0492 18.3993 21.0558 17.9474C21.0681 17.0724 21.8659 16.31 22.7656 16.31C22.7697 16.31 22.7738 16.31 22.7771 16.31C23.2026 16.3133 23.6118 16.4932 23.9289 16.8169C24.2551 17.1497 24.44 17.5991 24.4342 18.0501C24.4235 18.9243 23.6241 19.6868 22.7195 19.6868L22.7204 19.6876ZM25.2188 23.1465C25.1424 24.1891 24.3291 25.1619 23.3735 25.387V21.1278L24.4695 20.6776C24.541 20.846 24.6183 21.0128 24.6938 21.1755C24.9913 21.8147 25.2723 22.4186 25.2188 23.1473V23.1465ZM30.1575 17.3731C30.1575 17.3731 30.1583 17.3797 30.1591 17.3846H26.9631C26.8489 17.3846 26.7289 17.3961 26.6131 17.4068C26.3707 17.4298 26.1201 17.4528 25.9632 17.3641C25.8334 17.291 25.7512 17.0708 25.6724 16.858C25.6321 16.7487 25.5902 16.6362 25.5393 16.5351C25.5007 16.4579 25.4588 16.3839 25.4111 16.2977C25.4078 16.2919 25.4045 16.2862 25.4012 16.2804C25.6001 16.2007 25.7923 16.1136 25.9805 16.0282C26.6032 15.7456 27.1907 15.4794 27.8849 15.5278C28.9021 15.6001 29.9225 16.4283 30.1583 17.374L30.1575 17.3731ZM3.24108 9.53755C3.37911 9.57945 3.54096 9.60163 3.72172 9.60246C4.47184 9.60656 5.23428 9.60574 5.97207 9.60492H6.65318C6.95882 9.60492 7.26363 9.60492 7.56844 9.60492C7.856 9.60492 8.14685 9.60492 8.43934 9.60492C8.86657 9.60492 9.29708 9.60492 9.72349 9.60163C10.0431 9.59999 10.3027 9.49154 10.4564 9.29682C10.5878 9.13004 10.6297 8.90903 10.5755 8.67487C10.5155 8.41935 10.3068 8.11454 9.65284 8.11372C7.76562 8.11208 5.74038 8.11125 3.72172 8.11536H3.67078C3.5081 8.11372 3.32242 8.1129 3.20411 8.21724C3.03815 8.36431 2.82864 8.59189 2.7777 8.84001C2.71526 9.14236 2.9108 9.43485 3.2419 9.53509L3.24108 9.53755ZM3.64284 18.7452C3.98627 18.7477 4.33216 18.7477 4.67641 18.7477C4.93604 18.7477 5.19484 18.7477 5.44954 18.7477C5.70834 18.7477 5.96714 18.7477 6.22513 18.7477C6.56773 18.7477 6.91034 18.7477 7.25295 18.7477C8.05976 18.7477 8.89368 18.7493 9.71446 18.7452C10.0308 18.7436 10.2797 18.6474 10.4342 18.4667C10.5673 18.3106 10.619 18.1044 10.5829 17.8702C10.5237 17.4832 10.2008 17.2606 9.6972 17.2581C8.99145 17.2557 8.28652 17.2556 7.58076 17.2565H6.69672H5.83158C5.12008 17.2565 4.38475 17.2548 3.66092 17.2581C3.11209 17.2606 2.76702 17.5407 2.75962 17.9893C2.75634 18.1865 2.82289 18.3615 2.9527 18.4938C3.11209 18.6565 3.35117 18.7436 3.64366 18.746L3.64284 18.7452ZM9.68488 26.3959C8.4533 26.3935 7.2209 26.3935 5.98933 26.3935H5.01245C4.88181 26.3935 4.75118 26.3935 4.62054 26.3918C4.27958 26.3902 3.92711 26.3885 3.57958 26.3976C3.31502 26.4042 3.08908 26.4954 2.94284 26.6539C2.81467 26.7936 2.75223 26.976 2.76455 27.1806C2.7892 27.6111 3.13099 27.8806 3.65434 27.883C4.36338 27.8871 5.08393 27.8863 5.78146 27.8855C6.08381 27.8855 6.38534 27.8855 6.68851 27.8855H6.89802C7.17572 27.8855 7.45342 27.8855 7.73112 27.8863C8.00471 27.8863 8.28159 27.8871 8.56093 27.8871C8.94791 27.8871 9.33734 27.8863 9.72349 27.883C10.0283 27.8806 10.2699 27.7885 10.421 27.6177C10.5533 27.4689 10.6084 27.2677 10.5821 27.036C10.5361 26.6301 10.2091 26.3968 9.68488 26.3951V26.3959ZM9.91739 23.3823C7.84285 23.3659 5.73381 23.3725 3.69378 23.3798H3.43251C3.31092 23.3815 3.16549 23.4341 3.0439 23.5228C2.7777 23.7175 2.69307 24.0182 2.81138 24.3493C2.92312 24.6615 3.18193 24.8267 3.55986 24.8267H3.5615C4.33298 24.8259 5.10529 24.8267 5.87677 24.8267H6.66468C6.9621 24.8267 7.2587 24.8267 7.55612 24.8267C8.28159 24.8267 9.03089 24.8259 9.76786 24.8291H9.77443C10.2846 24.8291 10.4843 24.5465 10.5623 24.3091C10.6355 24.0856 10.601 23.8432 10.4703 23.6625C10.3438 23.4875 10.1417 23.3856 9.91575 23.384L9.91739 23.3823ZM3.57958 12.6399C4.54331 12.6432 5.43804 12.6448 6.28428 12.6448C7.54215 12.6448 8.69074 12.6407 9.79087 12.6333C10.0061 12.6317 10.2961 12.5364 10.4087 12.3639C10.5369 12.1675 10.5862 11.8586 10.5262 11.6285C10.4506 11.3393 10.1852 11.1734 9.79744 11.1734H9.79497C9.00953 11.175 8.22408 11.175 7.43863 11.1742H5.87266C5.12172 11.1725 4.37078 11.1725 3.61984 11.1742C3.0973 11.1758 2.75798 11.4617 2.75552 11.9038C2.75469 12.0993 2.82371 12.2727 2.95434 12.4049C3.10387 12.5553 3.3257 12.6391 3.5804 12.6399H3.57958ZM9.70953 20.3161C9.09661 20.3128 8.48288 20.3128 7.86997 20.3136H6.94649C5.8209 20.3136 4.69613 20.3136 3.57054 20.3177C3.10798 20.3194 2.80728 20.5659 2.76702 20.9775C2.74648 21.1862 2.80399 21.3727 2.93216 21.5165C3.08087 21.6824 3.31667 21.7744 3.59765 21.7777C4.32477 21.7851 5.06339 21.7835 5.77818 21.7818C6.03369 21.7818 6.28921 21.781 6.54473 21.781L6.66797 21.7835C6.96374 21.7835 7.25952 21.7835 7.5553 21.7835C7.84696 21.7835 8.14192 21.7835 8.43851 21.7835C8.85917 21.7835 9.28312 21.7835 9.70295 21.781C10.4292 21.7769 10.587 21.3817 10.5919 21.0514C10.5944 20.846 10.5336 20.6776 10.4095 20.5519C10.2575 20.3974 10.0226 20.3186 9.71035 20.3169L9.70953 20.3161ZM3.57218 15.6848C3.98298 15.6889 4.40036 15.688 4.80376 15.6872C4.97465 15.6872 5.14637 15.6872 5.31726 15.6864C5.45529 15.6864 5.71327 15.6864 6.03862 15.6864C6.52912 15.6864 7.17982 15.6872 7.77795 15.6872C8.40729 15.6872 8.9783 15.6872 9.23957 15.6839C9.29791 15.6848 9.35542 15.6839 9.41375 15.6823C9.45565 15.6815 9.49838 15.6806 9.54028 15.6806C9.58136 15.679 9.61915 15.6815 9.65777 15.6823C9.74814 15.6848 9.84181 15.6872 9.93629 15.6774C10.3035 15.6412 10.5788 15.3495 10.5903 14.9831C10.6034 14.5748 10.3446 14.2782 9.94615 14.2445C9.75143 14.2281 9.54849 14.2231 9.34145 14.2305H9.3357C9.32748 14.2297 9.31845 14.2289 9.30941 14.2289C8.10002 14.2174 4.70024 14.2182 3.55493 14.2272C3.08251 14.2313 2.76127 14.5189 2.75552 14.9428C2.75305 15.1409 2.8196 15.315 2.94859 15.4473C3.09484 15.5977 3.31585 15.6815 3.57136 15.6839L3.57218 15.6848ZM22.7475 6.89775C19.7831 6.89775 16.9955 8.0521 14.8987 10.1488C12.802 12.2455 11.6477 15.0324 11.6477 17.9976C11.6477 20.9627 12.802 23.7496 14.8987 25.8463C16.9955 27.943 19.7823 29.0974 22.7475 29.0974C25.7126 29.0974 28.4995 27.943 30.5962 25.8463C32.6929 23.7496 33.8473 20.9627 33.8473 17.9976C33.8473 15.0324 32.6929 12.2455 30.5962 10.1488C28.4995 8.0521 25.7126 6.89775 22.7475 6.89775ZM22.7475 27.5922C17.4572 27.5922 13.1528 23.2878 13.1528 17.9976C13.1528 12.7073 17.4572 8.40292 22.7475 8.40292C28.0378 8.40292 32.3421 12.7073 32.3421 17.9976C32.3421 23.2878 28.0378 27.5922 22.7475 27.5922Z" fill="#231F20"/>
</g>
<defs>
<clipPath id="clip0_34_1208">
<rect width="36.0007" height="36" fill="white"/>
</clipPath>
</defs>
</svg>
