<svg width="36" height="36" viewBox="0 0 36 36" fill="none" xmlns="http://www.w3.org/2000/svg">
<g clip-path="url(#clip0_34_1212)">
<path d="M32.3972 6.59292C32.3947 5.15308 31.3729 3.93658 29.9585 3.67888C29.5903 3.6118 29.2107 3.60689 28.8025 3.5709C28.8025 3.02687 28.8025 2.49756 28.8025 1.96826C28.8017 0.776305 28.0531 0.0154825 26.8759 0.0138463C24.982 0.011392 23.0873 0.038389 21.1943 -6.11953e-05C20.1373 -0.0213315 19.1294 0.753399 19.2121 1.98789C19.2472 2.51311 19.2178 3.04241 19.2178 3.60853C18.9985 3.60853 18.8382 3.60853 18.6778 3.60853C14.697 3.60853 10.7162 3.60689 6.73538 3.60935C4.91104 3.61098 3.61355 4.90602 3.61273 6.72136C3.61273 8.3019 3.62173 9.88245 3.62173 11.463C3.61928 17.4064 3.63073 23.3498 3.59965 29.2932C3.59228 30.684 4.71797 32.2179 6.18562 32.3292C6.5194 32.3545 6.85073 32.402 7.21069 32.4429C7.21069 33.0156 7.2066 33.5718 7.21151 34.129C7.22051 35.2121 7.98542 35.9828 9.06121 35.9958C9.38844 35.9999 9.71568 35.9975 10.0429 35.9967C11.2709 35.9958 12.0186 35.2416 12.0202 34.0022C12.0202 33.4761 12.0202 32.9501 12.0202 32.42H13.2016C13.2016 32.9976 13.1934 33.553 13.2032 34.1085C13.2245 35.2457 13.9861 35.9909 15.1216 35.9967C15.4218 35.9983 15.7213 35.9967 16.0215 35.9967C17.2732 35.9942 18.0029 35.2686 18.0054 34.021C18.0062 33.4819 18.0054 32.9427 18.0054 32.4216H19.2161C19.2161 33.0491 19.2071 33.6324 19.2186 34.2149C19.2358 35.1049 19.7774 35.7913 20.6584 35.9394C21.1632 36.0245 21.6892 35.9967 22.2054 35.9934C23.2133 35.986 23.9791 35.208 23.9889 34.1969C23.9946 33.6144 23.9897 33.0319 23.9897 32.4241C24.1067 32.4143 24.1983 32.4003 24.2899 32.4003C25.9392 32.3987 27.5876 32.4012 29.2369 32.3987C31.1193 32.3963 32.3988 31.1225 32.3996 29.2458C32.4021 26.0577 32.4005 22.8688 32.4005 19.6807C32.4005 15.3187 32.4037 10.9558 32.3972 6.59373V6.59292ZM20.413 1.77028C20.431 1.43405 20.6593 1.22871 21.0143 1.22871C23.0023 1.22625 24.9902 1.22625 26.9782 1.23034C27.3529 1.23034 27.5696 1.43487 27.5795 1.80628C27.595 2.38876 27.5836 2.97287 27.5836 3.58317H20.4032C20.4032 2.96142 20.3803 2.36503 20.4122 1.7711L20.413 1.77028ZM10.7694 34.3245C10.7522 34.493 10.4364 34.7229 10.2286 34.7589C9.83185 34.8284 9.41462 34.7916 9.00639 34.7761C8.63498 34.7622 8.43128 34.5503 8.42637 34.1764C8.41901 33.6054 8.42473 33.0344 8.42473 32.4167H10.7956C10.7956 33.0589 10.834 33.697 10.7694 34.3237V34.3245ZM16.7856 34.2329C16.7774 34.5691 16.5704 34.7614 16.2391 34.7753C15.817 34.7924 15.3932 34.7982 14.9719 34.7744C14.5997 34.7532 14.4181 34.5053 14.4099 34.1478C14.3984 33.5899 14.4066 33.0311 14.4066 32.4159H16.7897C16.7897 33.0205 16.8003 33.6267 16.7856 34.2329ZM22.8076 34.0782C22.7961 34.583 22.5834 34.7777 22.0696 34.7818C21.7432 34.7843 21.416 34.7859 21.0896 34.7802C20.6404 34.772 20.4187 34.5838 20.4007 34.1519C20.3803 33.6496 20.3827 33.1456 20.404 32.6433C20.4081 32.5525 20.5431 32.393 20.6216 32.3905C21.3383 32.3709 22.0565 32.3791 22.81 32.3791C22.81 32.9951 22.819 33.5367 22.8076 34.0782ZM31.184 21.901C31.184 24.3667 31.1856 26.8333 31.1831 29.299C31.1823 30.45 30.451 31.1814 29.2942 31.183C26.8301 31.1863 24.366 31.183 21.9011 31.183C20.5946 31.183 19.289 31.183 17.9825 31.183C16.253 31.1839 14.5236 31.1847 12.7933 31.1838C10.708 31.1838 8.62271 31.1879 6.5374 31.1765C5.59987 31.1716 4.86441 30.4353 4.83005 29.5019C4.82187 29.2842 4.82432 29.0658 4.82432 28.8474C4.82432 21.5149 4.82841 14.1823 4.81778 6.85061C4.81696 6.02598 5.06566 5.36251 5.83466 5.01155C6.14227 4.87166 6.51777 4.83157 6.863 4.83075C11.9474 4.82012 17.031 4.82339 22.1155 4.82339C24.4732 4.82339 26.8326 4.85775 29.1895 4.80867C30.3831 4.78412 31.2069 5.66766 31.1995 6.81135C31.166 11.841 31.184 16.8706 31.1831 21.9002L31.184 21.901ZM28.9898 6.00798C21.6287 6.00798 14.2683 6.00798 6.90718 6.00798C6.17499 6.00798 6.00974 6.16996 6.00892 6.89561C6.00646 8.15956 6.00728 9.42269 6.00728 10.6866C6.0081 16.8338 6.00892 22.9809 6.01137 29.1288C6.01137 29.8348 6.1799 29.9993 6.881 29.9993C10.5747 29.9993 14.2692 29.9993 17.9628 29.9993C21.6704 29.9993 25.378 29.9993 29.0856 29.9993C29.8538 29.9993 30.0051 29.8405 30.0051 29.0495C30.0051 25.9064 30.0051 22.7624 30.0051 19.6193C30.0051 15.4209 30.0051 11.2225 30.0051 7.02405C30.0051 6.12661 29.8857 6.00798 28.9898 6.00798ZM28.7812 28.7664H7.23196V7.22612H28.7821V28.7664H28.7812ZM14.4843 19.7838C15.2321 19.7928 15.9798 19.7862 16.793 19.7862C16.793 20.0153 16.793 20.1756 16.793 20.3368C16.793 21.3177 16.7872 22.2994 16.7962 23.2803C16.8011 23.7924 17.1505 24.1115 17.5661 23.9593C17.7485 23.8922 17.9129 23.7041 18.0242 23.5306C19.3487 21.469 20.6593 19.3985 21.9796 17.3344C22.149 17.0694 22.2856 16.8108 22.1138 16.5032C21.9477 16.2063 21.6606 16.2006 21.3644 16.2038C20.6601 16.2104 19.9557 16.2063 19.2178 16.2063C19.2178 16.0108 19.2178 15.8635 19.2178 15.7162C19.2178 14.7214 19.2178 13.7267 19.2178 12.7319C19.2178 12.4226 19.1221 12.1518 18.8055 12.0512C18.502 11.9539 18.2475 12.0537 18.0692 12.3351C16.6956 14.4948 15.3147 16.6497 13.9468 18.8127C13.6294 19.315 13.8937 19.7781 14.4851 19.7854L14.4843 19.7838ZM17.9121 14.8139C17.9432 14.8163 17.9751 14.8196 18.0062 14.8221C18.0062 15.2827 18.0062 15.7432 18.0062 16.2038C18.0062 17.3549 18.0626 17.4113 19.2292 17.4154C19.6227 17.4162 20.0154 17.4154 20.5005 17.4154C19.6718 18.7162 18.8824 19.9564 18.0929 21.1958C18.0635 21.186 18.0348 21.1762 18.0054 21.1664C18.0054 20.5683 18.0078 19.9703 18.0054 19.3723C18.0021 18.807 17.782 18.5918 17.2077 18.591C16.6776 18.5902 16.1475 18.591 15.5167 18.591C16.3397 17.2935 17.1259 16.0533 17.9121 14.8139ZM25.8926 21.6008C26.8162 21.5664 27.5966 20.7369 27.5909 19.8001C27.5868 19.2013 27.5909 18.6033 27.5901 18.0044C27.5901 17.4326 27.5934 16.8599 27.5893 16.2881C27.5811 15.2188 26.8505 14.4302 25.8508 14.4073C24.8331 14.3844 24.0216 15.1559 23.9979 16.2276C23.9717 17.4261 23.9725 18.6254 23.9979 19.8239C24.02 20.8678 24.8683 21.6392 25.8934 21.6016L25.8926 21.6008ZM25.2037 17.9545H25.2054C25.2054 17.3966 25.2005 16.8378 25.207 16.2799C25.2119 15.8668 25.4148 15.6385 25.7739 15.623C26.1224 15.6074 26.3932 15.8332 26.3981 16.2267C26.4145 17.4105 26.417 18.5959 26.3924 19.7797C26.3826 20.2419 26.183 20.4031 25.7993 20.3859C25.414 20.3687 25.2103 20.1462 25.2054 19.711C25.1988 19.1252 25.2037 18.5403 25.2037 17.9545ZM9.02112 11.3951C9.39253 11.391 9.59787 11.1538 9.6036 10.7128C9.60769 10.3627 9.60442 10.0117 9.60442 9.59939C10.2278 9.59939 10.771 9.60348 11.3142 9.59858C11.7396 9.59449 12.0063 9.37115 12.0178 9.02346C12.0284 8.67823 11.7584 8.42871 11.3437 8.4238C10.5951 8.41562 9.84575 8.41317 9.0972 8.42053C8.63089 8.42462 8.42882 8.63159 8.4231 9.09872C8.41655 9.64357 8.41737 10.1876 8.4231 10.7324C8.42801 11.1693 8.64071 11.3992 9.0203 11.3951H9.02112ZM27.5844 25.2061C27.5696 24.8232 27.3561 24.6154 27.0035 24.6162C26.6428 24.6171 26.4333 24.815 26.4153 25.1987C26.4014 25.4973 26.4014 25.7967 26.4121 26.0953C26.4202 26.3203 26.3401 26.4177 26.1069 26.4087C25.8083 26.3972 25.5089 26.398 25.2103 26.4119C24.8233 26.4299 24.6196 26.6377 24.6172 26.992C24.6147 27.3454 24.8233 27.5728 25.1996 27.581C25.7977 27.5933 26.3957 27.59 26.9937 27.5826C27.3668 27.5777 27.5705 27.3716 27.5852 27.0001C27.5966 26.7015 27.5876 26.4021 27.5868 26.1027C27.586 25.8033 27.5958 25.5039 27.5844 25.2053V25.2061Z" fill="black"/>
</g>
<defs>
<clipPath id="clip0_34_1212">
<rect width="36.0007" height="36" fill="white"/>
</clipPath>
</defs>
</svg>
