<svg xmlns="http://www.w3.org/2000/svg" width="36" height="36" viewBox="0 0 36 36"><g><g><path fill="#231f20" d="M0 30.777l1.144-1.146.49.721 1.31-1.279-.643-.512L3.45 27.43l.47.602 1.307-1.272-.62-.508 1.161-1.133.433.57 2.011-1.986c-.207-.175-.457-.36-.677-.577a75.508 75.508 0 0 1-1.78-1.8.498.498 0 0 1-.11-.397c.67-2.528 1.353-5.052 2.04-7.574a.797.797 0 0 1 .204-.33c2.41-2.432 4.824-4.86 7.238-7.287.041-.042.09-.076.175-.149l1.212 1.295c.136-.13.238-.225.336-.324 1.879-1.889 3.748-3.787 5.638-5.665 1.671-1.66 4.391-.902 4.953 1.377.267 1.086-.031 2.035-.809 2.822C24.76 6.988 22.88 8.874 21 10.762c-.094.094-.21.164-.291.227l4.291 4.307c.074-.07.17-.157.261-.249 1.896-1.906 3.784-3.82 5.688-5.717 1.634-1.628 4.29-.943 4.925 1.272.325 1.133.017 2.125-.804 2.953-1.875 1.893-3.754 3.78-5.634 5.668-.093.094-.208.165-.34.27l1.286 1.25c-.12.126-.193.206-.27.282-2.353 2.369-4.705 4.739-7.066 7.1a1.289 1.289 0 0 1-.544.312c-2.413.672-4.832 1.325-7.245 1.998-.278.077-.45.029-.65-.18-.775-.81-1.572-1.597-2.321-2.353l-1.948 1.904.709.586-1.216 1.15-.52-.657-1.278 1.265.729.488-1.202 1.209-.489-.683-1.28 1.271.616.447L5.276 36zm28.226-9.981L15.285 7.81c-.048.033-.09.053-.122.085a3555.697 3555.697 0 0 0-5.913 5.951.726.726 0 0 0-.167.308c-.578 2.09-1.146 4.183-1.73 6.271-.057.208-.018.331.127.473.696.684 1.386 1.375 2.074 2.067 1.851 1.865 3.703 3.728 5.546 5.601.184.188.34.233.592.165 2.013-.546 4.03-1.073 6.043-1.62a1.28 1.28 0 0 0 .54-.322c1.884-1.882 3.76-3.773 5.637-5.663zM19.658 9.933c.062-.088.12-.199.204-.283 1.628-1.644 3.26-3.284 4.89-4.925.28-.282.568-.557.838-.848.41-.442.501-1.05.257-1.58-.25-.545-.736-.82-1.374-.793-.412.017-.72.22-1.002.504-1.874 1.891-3.752 3.778-5.629 5.668-.075.076-.145.157-.204.222zm8.361 8.402c2.007-2.003 4.038-3.993 6.02-6.03.745-.764.246-2.089-.803-2.28-.538-.098-.981.098-1.366.485-1.866 1.883-3.74 3.759-5.611 5.637-.075.075-.144.156-.197.214zM2.897 31.364l1.762 1.774 6.369-6.415-1.757-1.78z"/></g></g></svg>