<svg xmlns="http://www.w3.org/2000/svg" width="36" height="33" viewBox="0 0 36 33"><g><g><path d="M21.985 10.556a.94.94 0 0 0-.243.575c-.03.76-.01 1.523-.016 2.285a1.539 1.539 0 0 1-1.556 1.56c-.218.002-.436 0-.666 0v2.251h12.015v-1.463H36V33h-4.491v-1.49H4.479V33H0V15.764h4.495v1.46h6.013v-2.248c-.517 0-.972.004-1.428 0-.881-.008-1.553-.676-1.555-1.562-.006-2.146.033-4.292-.02-6.436-.023-.977.751-1.758 1.761-1.75 3.421.033 6.843.01 10.265.019.292 0 .502-.076.71-.287A636.509 636.509 0 0 1 24.966.236c.118-.117.314-.221.475-.222C28.44 0 31.44.004 34.44 0c.508 0 .907.213 1.208.606.14.181.236.395.352.595v2.814c-.023.025-.056.046-.068.075-.3.782-.851 1.138-1.702 1.13-2.19-.023-4.381-.012-6.572.005a.912.912 0 0 0-.579.233 538.07 538.07 0 0 0-5.094 5.098zM2.552 31.52c.467-.002.47-.002.47-.459V17.665c0-.136-.013-.273-.02-.419H1.477v9.007c0 1.63.006 3.259-.005 4.888-.001.285.081.41.378.384.233-.019.468-.002.702-.004zm30.425-7.277c0 2.309.006 4.617-.005 6.926 0 .284.093.375.365.356.268-.019.54-.02.808 0 .287.021.383-.077.383-.374-.008-4.51-.005-9.022-.006-13.533 0-.124-.013-.247-.02-.374h-1.525V24.244zM4.503 29.98h26.994V18.748H4.503zm13.51-12.754l-.001-1.994c0-.068-.01-.137-.017-.225h-5.974v2.219zm2.467-7.272c1.992-1.984 3.98-3.973 5.961-5.968a.739.739 0 0 1 .579-.245c2.354.01 4.707.006 7.061.005.135 0 .27-.011.412-.018V1.491c-.112-.01-.182-.02-.251-.02-2.728 0-5.457-.005-8.185.008-.161 0-.357.104-.476.222a697.692 697.692 0 0 0-4.746 4.748.863.863 0 0 1-.673.285c-3.595-.009-7.19-.005-10.785-.003-.123 0-.245.01-.36.016v6.736h11.242c0-1.012.006-1.995-.005-2.978a.698.698 0 0 1 .226-.551zm-9.976-5.726c.008-.433-.018-.868.012-1.3.055-.794.757-1.431 1.55-1.432a2528.6 2528.6 0 0 1 5.798 0c.952.002 1.607.658 1.613 1.61.002.442 0 .884 0 1.349h-1.464V2.992c-.125-.012-.215-.03-.305-.03-1.78-.002-3.56.004-5.34-.007-.285-.002-.405.072-.38.372.023.29 0 .585.008.878.006.19-.057.282-.26.275-.328-.01-.656-.009-.984-.002-.181.004-.252-.07-.248-.25z"/></g></g></svg>