<svg xmlns="http://www.w3.org/2000/svg" width="33" height="36" viewBox="0 0 33 36"><g><g><g><path fill="#231f20" d="M26.487 29.838c-3.602 2.789-7.668 3.944-12.178 3.331C7.188 32.201 1.46 26.598.236 19.45-1.071 11.82 3.164 4.135 10.275 1.23 19.52-2.544 29.88 2.688 32.437 12.486c1.182 4.53.482 8.83-1.905 12.85a1.527 1.527 0 0 0-.19.732c-.017 1.444-.004 2.89-.013 4.334-.002.255.05.408.294.559.674.416 1.053 1.026 1.034 1.862-.019.792 0 1.584-.005 2.376-.003.565-.22.793-.762.796-.825.006-1.65.007-2.474 0-.47-.004-.708-.246-.711-.72-.007-.89-.02-1.78.003-2.668.02-.761.456-1.278 1.056-1.687.114-.078.244-.236.247-.359.02-.999.011-1.999.011-3.005-.86.78-1.648 1.595-2.535 2.282zm5.171-13.209c.006-8.511-6.729-15.313-15.17-15.32C8.041 1.304 1.3 8.12 1.308 16.663 1.314 25.198 8.041 32.007 16.457 32c8.5-.008 15.193-6.777 15.2-15.37zm-1.329 18.024c0-.712.008-1.375-.003-2.038-.005-.375-.205-.592-.58-.613-.341-.019-.675.07-.698.466-.04.724-.011 1.453-.011 2.185z"/></g><g><path fill="#231f20" d="M29 16.53c-.001 6.816-5.688 12.472-12.535 12.47C9.678 28.998 3.945 23.248 4 16.32 4.052 9.788 9.77 4.06 16.303 4L17.7 5.379a11.312 11.312 0 0 0-1.08-.053L5.324 16.488c-.01 6.237 4.904 11.182 11.132 11.204 6.256.023 11.22-4.902 11.236-11.146 0-.47-.026-.931-.08-1.385zM17.699 5.377l9.914 9.783C27 9.955 22.897 5.885 17.7 5.378z"/></g><g><path fill="#231f20" d="M19.252 13.494c.559-1.335 1.148-2.658 1.666-4.009.356-.932.738-1.194 1.648-.437 1.663 1.384 2.826 3.071 3.368 5.158.272 1.045-.319 2.066-1.363 2.404-1.277.414-2.556.822-3.833 1.234-.123.04-.243.089-.44.162.116.042.157.068.2.072 1.475.112 2.95.23 4.425.33.823.057 1.063.374.793 1.131-.773 2.169-2.157 3.86-4.118 5.086-.82.512-2 .251-2.604-.562-.814-1.094-1.615-2.198-2.422-3.296a.742.742 0 0 0-.302-.263c.173.727.345 1.455.52 2.182.193.794.393 1.585.584 2.38.15.621-.105.935-.755.934-2.376-.004-4.457-.808-6.273-2.3-.725-.597-.853-1.801-.283-2.594.796-1.107 1.61-2.201 2.415-3.301a.812.812 0 0 0 .168-.356c-.114.061-.23.117-.34.184-1.217.737-2.43 1.476-3.647 2.212-.618.373-.97.23-1.192-.457-.681-2.113-.61-4.206.168-6.278.446-1.185 1.474-1.678 2.686-1.295 1.292.409 2.582.826 3.873 1.24.112.035.223.07.364.053l-2.783-2.353c-.315-.265-.635-.524-.942-.798-.401-.358-.375-.775.067-1.091 1.908-1.363 4.04-1.98 6.388-1.849a1.994 1.994 0 0 1 1.879 1.994c.003 1.49 0 2.98 0 4.47zm-5.072.899c-1.451-.466-2.903-.935-4.357-1.398-.537-.17-.709-.088-.926.43-.592 1.412-.735 2.876-.504 4.38.03.197.092.389.149.618 1.429-.868 2.79-1.72 4.179-2.527zm3.705-.83c0-1.597.007-3.187-.007-4.777-.003-.283-.203-.443-.499-.472-1.823-.175-3.51.22-5.11 1.168.12.108.214.196.312.28 1.176.992 2.377 1.957 3.516 2.989zm-1.97 11.13c-.017-.136-.02-.239-.044-.337-.41-1.687-.841-3.37-1.222-5.064-.117-.523-.53-.771-.793-1.201-.956 1.305-1.873 2.55-2.78 3.801-.25.347-.227.598.126.852.568.409 1.141.823 1.758 1.15zm1.42-5.053c.926 1.26 1.848 2.518 2.775 3.773.235.319.542.328.837.105.58-.44 1.182-.861 1.703-1.364.717-.692 1.25-1.525 1.627-2.486-.162-.026-.291-.056-.422-.066-1.54-.116-3.085-.194-4.62-.36zm2.51-2.89c.033 0 .074.009.109-.002 1.467-.47 2.935-.94 4.4-1.415.32-.103.445-.338.358-.65-.126-.457-.248-.918-.427-1.355a7.732 7.732 0 0 0-2.283-3.075c-.65 1.553-1.256 3.086-1.936 4.586zm-3.221-2.152c-1.122-.01-1.92.756-1.938 1.861-.02 1.129.768 1.93 1.9 1.935 1.15.004 1.933-.763 1.936-1.898z"/></g></g></g></svg>