<svg width="23" height="30" viewBox="0 0 23 30" fill="none" xmlns="http://www.w3.org/2000/svg">
<path d="M11.25 30C11.25 30 22.5 19.3388 22.5 11.25C22.5 8.26631 21.3147 5.40483 19.205 3.29505C17.0952 1.18526 14.2337 0 11.25 0C8.26631 0 5.40483 1.18526 3.29505 3.29505C1.18526 5.40483 4.44604e-08 8.26631 0 11.25C0 19.3388 11.25 30 11.25 30ZM11.25 16.875C9.75816 16.875 8.32742 16.2824 7.27252 15.2275C6.21763 14.1726 5.625 12.7418 5.625 11.25C5.625 9.75816 6.21763 8.32742 7.27252 7.27252C8.32742 6.21763 9.75816 5.625 11.25 5.625C12.7418 5.625 14.1726 6.21763 15.2275 7.27252C16.2824 8.32742 16.875 9.75816 16.875 11.25C16.875 12.7418 16.2824 14.1726 15.2275 15.2275C14.1726 16.2824 12.7418 16.875 11.25 16.875Z" fill="#0054FF"/>
</svg>
