<svg width="32" height="30" viewBox="0 0 32 30" fill="none" xmlns="http://www.w3.org/2000/svg">
<path d="M22.1581 19.2463L21.3542 20.0453C21.3542 20.0453 19.4438 21.9451 14.229 16.7598C9.01435 11.5747 10.9248 9.67514 10.9248 9.67514L11.4309 9.17187C12.6779 7.93209 12.7954 5.94162 11.7074 4.4885L9.48225 1.51602C8.13581 -0.282501 5.53406 -0.520084 3.9908 1.0144L1.22091 3.76857C0.455698 4.52944 -0.0570916 5.51576 0.00509683 6.60991C0.164186 9.40911 1.43067 15.4319 8.49772 22.4588C15.992 29.9104 23.0238 30.2065 25.8994 29.9385C26.809 29.8538 27.5999 29.3905 28.2373 28.7567L30.7443 26.2642C32.4364 24.5815 31.9593 21.6969 29.7941 20.5201L26.4227 18.6872C25.001 17.9145 23.2691 18.1414 22.1581 19.2463Z" fill="#0054FF"/>
</svg>
