<svg width="31" height="31" viewBox="0 0 31 31" fill="none" xmlns="http://www.w3.org/2000/svg">
<path d="M31 15.25C31 23.6723 24.1723 30.5 15.75 30.5C7.32766 30.5 0.5 23.6723 0.5 15.25C0.5 6.82766 7.32766 0 15.75 0C24.1723 0 31 6.82766 31 15.25ZM3.2822 15.25C3.2822 22.1358 8.86422 27.7178 15.75 27.7178C22.6358 27.7178 28.2178 22.1358 28.2178 15.25C28.2178 8.36422 22.6358 2.7822 15.75 2.7822C8.86422 2.7822 3.2822 8.36422 3.2822 15.25Z" fill="#0054FF"/>
<path d="M15.7499 5.54541C14.9842 5.54541 14.3635 6.1661 14.3635 6.93177V15.897C14.3635 15.897 14.3635 16.2584 14.5392 16.5303C14.6567 16.7608 14.84 16.9611 15.0808 17.1002L21.4856 20.798C22.1486 21.1808 22.9966 20.9536 23.3793 20.2905C23.7621 19.6274 23.535 18.7795 22.8719 18.3967L17.1363 15.0853V6.93177C17.1363 6.16611 16.5156 5.54541 15.7499 5.54541Z" fill="#0054FF"/>
</svg>
